<svg version="1.2" xmlns="http://www.w3.org/2000/svg" viewBox="0 0 600 10">
    <style></style>
    <g style="opacity:.4">
        <path
            d="m739.6 49.1c-0.4 1-0.6 2.1-1.1 3.1-5.8 12.2-11.6 24.4-17.6 36.5-1.2 2.5-1.3 4.5-0.1 7.1 6.3 12.6 12.3 25.4 18.4 38.1 0.5 0.9 0.8 1.8 0.9 2.9-0.6-0.8-1.2-1.6-1.8-2.5-8.1-11.8-16.3-23.6-24.3-35.5-1.2-1.9-2.6-2.6-4.9-2.8-14.4-1-28.8-2.1-43.1-3.2q-1.8-0.1-3.6-0.7 13.4-1.1 26.8-2.1c7-0.5 14-1.1 21-1.6 1.6-0.1 2.5-0.8 3.4-2 8.4-12.5 16.9-24.9 25.4-37.3q0.3 0 0.6 0z" />
        <path
            d="m412.7 49.1c8.5 12.4 17 24.8 25.4 37.3 0.9 1.3 1.9 1.9 3.5 2 9.2 0.7 18.4 1.4 27.6 2.1 6.7 0.6 13.4 1 20.1 1.9-4 0.4-8.1 0.8-12.1 1.1-11.8 0.9-23.5 1.8-35.3 2.6-1.8 0.1-2.9 0.8-3.9 2.3-8.1 11.9-16.3 23.8-24.4 35.7-0.7 1-1.3 1.9-2.4 2.6q0.6-1.4 1.2-2.8c6.3-13 12.5-26 18.8-39 0.9-1.9 0.9-3.4 0-5.3-6.1-12.5-12-24.9-18-37.4-0.4-1-0.7-2.1-1.1-3.1q0.3 0 0.6 0z" />
        <path
            d="m240.1 49.1c-0.4 1-0.7 2.1-1.1 3.1-5.9 12.2-11.6 24.4-17.6 36.5-1.3 2.5-1.3 4.5-0.1 7.1 6.2 12.5 12.2 25.2 18.3 37.8 0.4 1 0.9 2 1 3.2-0.6-0.8-1.3-1.6-1.9-2.5-8-11.8-16.2-23.6-24.2-35.5-1.2-1.9-2.6-2.6-4.9-2.8-14.4-1-28.8-2.1-43.2-3.2q-1.8-0.1-3.5-0.7 13.4-1.1 26.8-2.1c7-0.5 13.9-1.1 20.9-1.6 1.6-0.1 2.6-0.8 3.5-2 8.4-12.5 16.9-24.9 25.4-37.3q0.3 0 0.6 0z" />
        <path
            d="m246.2 49.1c8.5 12.4 17 24.8 25.4 37.3 0.9 1.3 1.9 1.9 3.5 2 9.3 0.7 18.6 1.4 27.9 2.2 6.6 0.5 13.2 0.9 19.8 1.8-4 0.4-8.1 0.8-12.1 1.1-11.8 0.9-23.5 1.8-35.3 2.6-1.8 0.1-2.9 0.8-3.9 2.3-8.1 11.9-16.3 23.8-24.5 35.7-0.6 1-1.2 1.9-2.3 2.6q0.6-1.4 1.2-2.7c6.3-13.1 12.5-26.1 18.8-39.1 0.9-1.9 0.9-3.4 0-5.3-6.1-12.5-12-24.9-18-37.4-0.5-1-0.7-2.1-1.1-3.1q0.3 0 0.6 0z" />
        <path
            d="m579.2 49.1c8.5 12.4 17 24.8 25.4 37.3 0.9 1.3 1.9 1.9 3.5 2 9.3 0.7 18.6 1.4 27.9 2.2 6.6 0.5 13.2 0.9 19.8 1.8-4 0.4-8.1 0.8-12.1 1.1-11.8 0.9-23.5 1.8-35.3 2.6-1.8 0.1-2.9 0.8-3.9 2.3-8.1 11.9-16.3 23.8-24.4 35.7-0.7 1-1.3 1.9-2.4 2.6q0.6-1.4 1.3-2.7c6.2-13.1 12.4-26.1 18.7-39.1 1-1.9 0.9-3.4 0-5.3-6.1-12.5-12-24.9-18-37.4-0.4-1-0.7-2.1-1.1-3.1q0.3 0 0.6 0z" />
        <path
            d="m906.1 49.1c-0.4 1-0.6 2.1-1.1 3.1-5.8 12.2-11.6 24.4-17.6 36.5-1.2 2.5-1.3 4.5 0 7.1 6.2 12.5 12.1 25.2 18.2 37.8 0.5 1 0.9 2 1 3.2-0.6-0.8-1.2-1.6-1.8-2.5-8.1-11.8-16.2-23.6-24.2-35.5-1.3-1.9-2.7-2.6-5-2.8-14.4-1-28.7-2.1-43.1-3.2q-1.8-0.1-3.6-0.7 13.4-1.1 26.8-2.1c7-0.5 14-1.1 21-1.6 1.6-0.1 2.5-0.8 3.4-2 8.4-12.5 16.9-24.9 25.4-37.3q0.3 0 0.6 0z" />
        <path
            d="m406.6 49.1c-0.4 1-0.7 2.1-1.1 3.1-5.9 12.2-11.6 24.4-17.6 36.5-1.2 2.5-1.3 4.5-0.1 7.1 6.3 12.6 12.3 25.4 18.4 38.1 0.4 0.9 0.8 1.8 0.9 2.9-0.6-0.8-1.3-1.6-1.9-2.5-8-11.8-16.2-23.6-24.2-35.5-1.3-1.9-2.6-2.6-4.9-2.8-14.4-1-28.8-2.1-43.2-3.2q-1.8-0.1-3.5-0.7 13.4-1.1 26.8-2.1c7-0.5 14-1.1 20.9-1.6 1.6-0.1 2.6-0.8 3.5-2 8.4-12.5 16.9-24.9 25.4-37.3q0.3 0 0.6 0z" />
        <path
            d="m573.1 49.1c-0.4 1-0.7 2.1-1.1 3.1-5.9 12.2-11.6 24.4-17.6 36.5-1.2 2.5-1.3 4.5-0.1 7.1 6.3 12.6 12.3 25.4 18.4 38.1 0.4 0.9 0.8 1.8 0.9 2.9-0.6-0.8-1.3-1.6-1.8-2.5-8.1-11.8-16.3-23.6-24.3-35.5-1.2-1.9-2.6-2.6-4.9-2.8-14.4-1-28.8-2.1-43.1-3.2q-1.8-0.1-3.6-0.7 13.4-1.1 26.8-2.1c7-0.5 14-1.1 21-1.6 1.5-0.1 2.5-0.8 3.4-2 8.4-12.5 16.9-24.9 25.4-37.3q0.3 0 0.6 0z" />
        <path
            d="m745.7 49.1c8.5 12.4 17 24.8 25.4 37.3 0.9 1.3 1.9 1.9 3.5 2 9.3 0.7 18.6 1.4 27.9 2.2 6.6 0.5 13.2 0.9 19.8 1.8-4 0.4-8.1 0.8-12.1 1.1-11.8 0.9-23.5 1.8-35.3 2.6-1.8 0.1-2.9 0.8-3.9 2.3-8.1 11.9-16.3 23.8-24.4 35.7-0.7 1-1.3 1.9-2.4 2.6q0.6-1.4 1.3-2.7c6.2-13.1 12.4-26.1 18.7-39.1 1-1.9 0.9-3.4 0-5.3-6.1-12.5-12-24.9-18-37.4-0.4-1-0.7-2.1-1.1-3.1q0.3 0 0.6 0z" />
        <path
            d="m405.4 903c-0.8-1.3-1.6-2.6-2.5-3.9-7.3-10.7-14.7-21.4-22-32.2-1.1-1.6-2.3-2.5-4.3-2.6-14.9-1.1-29.8-2.3-44.7-3.4-0.9-0.1-1.8-0.1-2.7-0.5 4.1-0.4 8.1-0.8 12.1-1.1 11.7-0.9 23.3-1.8 35-2.6 2.1-0.1 3.4-0.9 4.6-2.6 8.1-11.9 16.2-23.7 24.3-35.5 0.6-1 1.2-1.9 2.2-2.6-0.3 0.9-0.7 1.9-1.2 2.8-6.2 13-12.4 26-18.7 39-0.9 1.9-0.9 3.4 0 5.4 6.4 13.2 12.7 26.5 19.1 39.8q-0.6 0-1.2 0z" />
        <path
            d="m245.6 903c6.3-13.3 12.6-26.6 19.1-39.8 0.9-2 0.9-3.5 0-5.4-6.3-12.9-12.4-25.8-18.6-38.7-0.5-1-0.9-2-1.1-3.2 0.7 0.8 1.3 1.6 1.9 2.5 8.1 11.8 16.2 23.6 24.2 35.5 1.3 2 2.9 2.7 5.2 2.8 15.1 1.1 30.2 2.4 45.2 3.6 0.5 0 1 0.1 1.5 0.4q-16.9 1.3-33.7 2.6c-4.8 0.3-9.6 0.8-14.3 1.1-1.3 0.1-2.3 0.4-3.1 1.5-8.3 12.3-16.7 24.5-25 36.8-0.1 0.1-0.1 0.2-0.1 0.3q-0.6 0-1.2 0z" />
        <path
            d="m571.9 903c-2.1-3.2-4.2-6.5-6.4-9.6-6.1-8.9-12.2-17.8-18.2-26.7-1-1.5-2.1-2.2-3.9-2.4-12.6-0.9-25.2-1.9-37.7-2.8-3.3-0.3-6.6-0.6-10-1.1 4.2-0.4 8.3-0.8 12.4-1.1 11.7-0.9 23.3-1.8 35-2.6 1.9-0.1 3.1-0.8 4.2-2.4 8.1-11.9 16.2-23.8 24.4-35.7 0.6-1 1.2-1.9 2.3-2.6-0.4 0.9-0.8 1.9-1.2 2.8-6.3 13-12.5 26-18.8 39-0.9 1.9-0.9 3.4 0 5.4 6.4 13.2 12.8 26.5 19.1 39.8q-0.6 0-1.2 0z" />
        <path
            d="m238.9 903c-0.9-1.4-1.7-2.8-2.7-4.1-7.2-10.7-14.5-21.3-21.8-32-1.1-1.6-2.3-2.5-4.3-2.6-15-1.1-30-2.3-45-3.4-0.8-0.1-1.6-0.1-2.4-0.5 4.1-0.4 8.3-0.8 12.4-1.1 11.7-0.9 23.3-1.8 35-2.6 1.9-0.1 3.1-0.8 4.2-2.4 8-11.9 16.2-23.8 24.4-35.7 0.6-1 1.2-1.9 2.2-2.6-0.4 0.9-0.7 1.9-1.2 2.8-6.2 13-12.4 26-18.7 39-0.9 1.9-1 3.4 0 5.4 6.4 13.2 12.7 26.5 19.1 39.8q-0.6 0-1.2 0z" />
        <path
            d="m578.6 903c6.3-13.3 12.7-26.6 19.1-39.8 0.9-2 0.9-3.5 0-5.4-6.3-12.9-12.4-25.8-18.6-38.7-0.5-1-0.9-2-1.1-3.2 0.7 0.8 1.3 1.6 1.9 2.5 8.1 11.8 16.2 23.6 24.2 35.5 1.4 2 2.9 2.7 5.2 2.8 15.1 1.1 30.2 2.4 45.2 3.6 0.5 0 1 0.1 1.5 0.4q-17 1.3-34 2.6c-4.8 0.4-9.5 0.8-14.3 1.1-1.2 0.1-2.1 0.5-2.8 1.5q-12.5 18.4-25 36.8c-0.1 0.1-0.1 0.2-0.1 0.3q-0.6 0-1.2 0z" />
        <path
            d="m738.4 903c-2.1-3.2-4.2-6.5-6.4-9.6-6.1-8.9-12.2-17.8-18.2-26.7-1-1.5-2.1-2.2-3.9-2.4-12.6-0.9-25.1-1.9-37.7-2.8-3.3-0.3-6.6-0.6-10-1.1 4.2-0.4 8.3-0.8 12.4-1.1 11.7-0.9 23.3-1.8 35-2.6 1.9-0.1 3.1-0.8 4.2-2.4 8.1-11.9 16.2-23.8 24.4-35.7 0.6-1 1.2-1.9 2.3-2.6-0.4 0.9-0.8 1.9-1.2 2.8-6.3 13-12.5 26-18.8 39-0.9 1.9-0.9 3.4 0 5.4 6.4 13.2 12.8 26.5 19.1 39.8q-0.6 0-1.2 0z" />
        <path
            d="m904.9 903c-0.9-1.4-1.7-2.8-2.6-4.1-7.3-10.7-14.6-21.3-21.8-32-1.1-1.6-2.3-2.5-4.4-2.6-15-1.1-30-2.3-45-3.4-0.8-0.1-1.6-0.1-2.4-0.5 4.2-0.4 8.3-0.8 12.4-1.1 11.7-0.9 23.3-1.8 35-2.6 1.9-0.1 3.1-0.8 4.2-2.4 8.1-11.9 16.2-23.8 24.4-35.7 0.6-1 1.3-1.9 2.3-2.6-0.4 0.9-0.8 1.9-1.2 2.8-6.3 13-12.5 26-18.8 39-0.9 1.9-0.9 3.4 0 5.4 6.5 13.2 12.8 26.5 19.1 39.8q-0.6 0-1.2 0z" />
        <path
            d="m412.1 903c6.3-13.3 12.6-26.6 19.1-39.8 0.9-2 0.9-3.5 0-5.4-6.3-13-12.5-26-18.8-39-0.4-0.9-0.8-1.8-0.9-2.9 0.7 0.8 1.3 1.6 1.9 2.5 8.1 11.8 16.2 23.6 24.2 35.5 1.3 2 2.8 2.7 5.2 2.8 15.1 1.1 30.2 2.4 45.2 3.6 0.5 0 1 0.1 1.5 0.4q-17 1.3-34 2.6c-4.8 0.4-9.5 0.8-14.3 1.1-1.2 0.1-2.1 0.5-2.8 1.5q-12.5 18.4-25 36.8c-0.1 0.1-0.1 0.2-0.1 0.3q-0.6 0-1.2 0z" />
        <path
            d="m745.1 903c6.3-13.3 12.7-26.6 19.1-39.8 0.9-2 0.9-3.5 0-5.4-6.3-12.9-12.4-25.8-18.6-38.7-0.5-1-0.9-2-1-3.2 0.6 0.8 1.2 1.6 1.8 2.5 8.1 11.8 16.2 23.6 24.2 35.5 1.4 2 2.9 2.7 5.2 2.8 15.1 1.1 30.2 2.4 45.2 3.6 0.5 0 1 0.1 1.5 0.4q-17 1.3-34 2.6c-4.8 0.4-9.5 0.8-14.3 1.1-1.2 0.1-2.1 0.5-2.8 1.5q-12.5 18.4-25 36.8c0 0.1-0.1 0.2-0.1 0.3q-0.6 0-1.2 0z" />
        <path
            d="m974.4 573.6c-11.1 0.9-22.3 1.7-33.4 2.5-1.8 0.1-2.7 1.1-3.6 2.4q-12.2 17.9-24.4 35.7c-0.6 0.9-1.2 1.8-2.3 2.5 0.4-0.8 0.8-1.7 1.2-2.6 6.3-13.1 12.5-26.2 18.9-39.2 0.9-1.9 0.9-3.3 0-5.1-6.2-12.7-12.3-25.5-18.4-38.2-0.5-1-0.9-2-1-3.3 0.6 0.8 1.3 1.5 1.8 2.3 8 11.7 16 23.3 23.9 35 1.2 1.9 2.6 2.8 4.9 2.9 9.4 0.6 18.8 1.4 28.2 2.1 1.4 0.2 2.8 0.4 4.2 0.6q0 1.2 0 2.4z" />
        <path
            d="m974.4 477.9c-4.3 0.2-8.7 0.3-13 0.6-6.6 0.5-13.2 1.2-19.8 1.5-2.1 0.2-3.2 1-4.3 2.7-8 11.7-16 23.3-23.9 35-0.6 0.9-1.3 1.7-2.4 2.4 0.5-1 0.8-2 1.3-2.9 6.1-12.7 12.2-25.5 18.4-38.2 1-2 0.9-3.6-0.1-5.6-6.3-12.9-12.4-25.8-18.6-38.7-0.4-1-0.8-1.9-0.9-3.1q0.9 1.2 1.8 2.5c8 11.8 16.2 23.6 24.2 35.4 1.3 2 2.7 2.9 5.1 3 9.6 0.6 19.1 1.4 28.6 2.2 1.2 0 2.4 0.1 3.6 0.1q0 1.5 0 3.1z" />
        <path
            d="m974.4 285.7c-4.3 0.3-8.7 0.4-13 0.7-6.6 0.5-13.2 1.1-19.8 1.5-2.1 0.1-3.2 1-4.3 2.7-8 11.6-16 23.3-23.9 34.9-0.6 0.9-1.3 1.8-2.4 2.5 0.5-1 0.8-2 1.3-2.9 6.1-12.8 12.2-25.5 18.4-38.2 1-2.1 0.9-3.6-0.1-5.7-6.3-12.8-12.4-25.8-18.6-38.7-0.4-0.9-0.8-1.8-0.9-3q0.9 1.2 1.8 2.4c8 11.8 16.2 23.6 24.2 35.5 1.3 2 2.7 2.8 5.1 3 9.6 0.6 19.1 1.4 28.6 2.1 1.2 0.1 2.4 0.1 3.6 0.2q0 1.5 0 3z" />
        <path
            d="m974.4 670c-4.3 0.2-8.7 0.4-13 0.7-6.6 0.4-13.2 1.1-19.8 1.5-2.1 0.1-3.2 1-4.3 2.6-8 11.7-16 23.3-23.9 35-0.6 0.9-1.3 1.8-2.4 2.4 0.5-0.9 0.8-1.9 1.3-2.9 6.1-12.7 12.2-25.5 18.4-38.1 1-2.1 0.9-3.7-0.1-5.7-6.3-12.9-12.4-25.8-18.6-38.7-0.4-0.9-0.8-1.9-0.9-3.1q0.9 1.2 1.8 2.5c8 11.8 16.2 23.6 24.2 35.5 1.3 1.9 2.7 2.8 5.1 2.9 9.6 0.6 19.1 1.4 28.6 2.2 1.2 0.1 2.4 0.1 3.6 0.1q0 1.6 0 3.1z" />
        <path
            d="m974.4 381.5c-11.1 0.8-22.3 1.7-33.4 2.5-1.8 0.1-2.7 1.1-3.6 2.4q-12.2 17.9-24.4 35.7c-0.6 0.9-1.2 1.8-2.3 2.5q0.6-1.3 1.2-2.6c6.3-13.1 12.5-26.2 18.9-39.3 0.8-1.8 0.9-3.2 0-5.1-6.2-12.6-12.3-25.4-18.4-38.1-0.4-1-0.9-2-1-3.3 0.6 0.7 1.3 1.5 1.8 2.3 8 11.7 16 23.3 23.9 35 1.2 1.8 2.6 2.8 4.9 2.9 9.4 0.6 18.8 1.4 28.2 2.1 1.4 0.1 2.8 0.4 4.2 0.6q0 1.2 0 2.4z" />
        <path
            d="m974.4 765.8c-11.1 0.8-22.3 1.7-33.4 2.4-1.8 0.1-2.7 1.1-3.6 2.4q-12.2 17.9-24.4 35.8c-0.6 0.9-1.2 1.8-2.3 2.5q0.6-1.4 1.2-2.6c6.3-13.1 12.5-26.3 18.9-39.3 0.8-1.8 0.9-3.3 0-5.1-6.2-12.7-12.3-25.5-18.4-38.2-0.5-1-0.9-2-1-3.3 0.6 0.8 1.3 1.5 1.8 2.4 8 11.6 16 23.2 23.9 34.9 1.2 1.9 2.6 2.8 4.9 3 9.4 0.6 18.8 1.3 28.2 2.1 1.4 0.1 2.8 0.3 4.2 0.5q0 1.2 0 2.5z" />
        <path
            d="m974.4 189.4c-11.1 0.8-22.3 1.7-33.4 2.4-1.8 0.2-2.7 1.2-3.6 2.5q-12.2 17.8-24.4 35.7c-0.6 0.9-1.2 1.8-2.3 2.5q0.6-1.3 1.2-2.6c6.3-13.1 12.5-26.2 18.9-39.3 0.8-1.8 0.9-3.2 0-5.1-6.2-12.7-12.3-25.4-18.4-38.2-0.5-0.9-0.9-2-1-3.3 0.6 0.8 1.3 1.6 1.8 2.4 8 11.6 16 23.3 23.9 35 1.2 1.8 2.6 2.7 4.9 2.9 9.4 0.6 18.8 1.4 28.2 2.1 1.4 0.1 2.8 0.4 4.2 0.5q0 1.3 0 2.5z" />
        <path
            d="m974.4 862.1c-4.7 0.3-9.5 0.4-14.2 0.8-6.4 0.4-12.8 1-19.2 1.5-1.4 0.1-2.4 0.6-3.2 1.8-8.2 12-16.4 24-24.6 36-0.1 0.2-0.2 0.5-0.4 0.8q-0.6 0-1.2 0c6.4-13.3 12.7-26.6 19.1-39.8 0.9-1.9 1-3.4 0-5.4-6.3-12.9-12.5-25.9-18.7-38.9-0.4-0.9-0.8-1.9-0.9-3 0.6 0.8 1.2 1.6 1.8 2.5 8.1 11.8 16.3 23.7 24.4 35.7 1.2 1.7 2.5 2.5 4.6 2.6 9.7 0.6 19.3 1.5 28.9 2.2 1.2 0.1 2.4 0.1 3.6 0.2q0 1.5 0 3z" />
        <path
            d="m912.2 49.1c8.5 12.4 17 24.8 25.4 37.3 1 1.4 2.1 1.9 3.8 2q14.4 1.1 28.8 2.2c1.4 0.1 2.8 0.4 4.2 0.6q0 1.2 0 2.4c-11.1 0.9-22.2 1.7-33.4 2.5-1.8 0.1-2.7 1.1-3.5 2.4q-12.1 17.7-24.3 35.5c-0.7 0.9-1.4 1.9-2.4 2.7 0.3-0.8 0.7-1.7 1.1-2.5 6.1-12.8 12.1-25.5 18.3-38.2 1.3-2.6 1.5-4.6 0.1-7.3-6-12.1-11.7-24.3-17.6-36.5-0.4-1-0.7-2.1-1.1-3.1q0.3 0 0.6 0z" />
        <path
            d="m120.5 424.8c2.9-0.2 6.1 0.3 8.4-0.9 2.2-1.1 3.5-4 5-6.3 7.2-10.3 14.3-20.7 21.4-31.1 0.6-0.9 1.3-1.8 2.3-2.5-0.4 0.9-0.8 1.9-1.3 2.9-6.1 12.8-12.2 25.6-18.5 38.4-1 2.1-0.9 3.8 0.1 5.9 6.2 12.7 12.3 25.4 18.4 38.2 0.4 0.9 0.9 1.9 0.9 3.1-0.7-0.9-1.3-1.7-1.9-2.6-8-11.6-16-23.3-23.9-35-1.3-1.9-2.6-3.1-5.1-3-1.9 0.1-3.8-0.2-5.8-0.4q0-3.3 0-6.7z" />
        <path
            d="m120.5 616.9c2.9-0.2 6.1 0.3 8.4-0.9 2.2-1.1 3.5-4 5-6.2 7.2-10.4 14.3-20.8 21.4-31.2 0.6-0.9 1.3-1.8 2.3-2.5-0.4 1-0.8 2-1.3 2.9-6.1 12.7-12.1 25.5-18.3 38.1-1.2 2.4-1.1 4.2 0 6.5 6.2 12.6 12.2 25.3 18.3 37.9 0.4 1 0.9 1.9 0.9 3.1-0.7-0.8-1.3-1.7-1.9-2.6-8-11.6-16-23.2-23.9-34.9-1.3-2-2.6-3.2-5.1-3-1.9 0.1-3.8-0.3-5.8-0.5q0-3.3 0-6.7z" />
        <path
            d="m120.5 232.7c2.9-0.2 6.1 0.3 8.4-0.9 2.2-1.1 3.5-4 5-6.3 7.2-10.3 14.3-20.8 21.4-31.1 0.6-1 1.3-1.8 2.3-2.6-0.4 1-0.8 2-1.3 3-6.1 12.7-12.1 25.4-18.3 38.1-1.2 2.4-1.1 4.2 0 6.5 6.2 12.6 12.2 25.2 18.3 37.9 0.4 0.9 0.9 1.9 0.9 3.1-0.7-0.9-1.3-1.7-1.9-2.6-8-11.7-16-23.3-23.9-35-1.3-1.9-2.6-3.1-5.1-3-1.9 0.1-3.8-0.2-5.8-0.4q0-3.4 0-6.7z" />
        <path
            d="m120.5 809.1c2.9-0.3 6.1 0.3 8.4-0.9 2.2-1.2 3.5-4.1 5-6.3 7.2-10.4 14.3-20.8 21.4-31.2 0.6-0.9 1.3-1.8 2.3-2.5-0.4 1-0.8 2-1.3 2.9-6.1 12.8-12.2 25.7-18.5 38.4-1 2.2-0.9 3.9 0.1 6 6.2 12.7 12.3 25.4 18.4 38.1 0.4 1 0.9 2 0.9 3.2-0.7-0.9-1.3-1.8-1.9-2.6-8-11.7-16-23.3-23.9-35-1.3-1.9-2.6-3.1-5.1-3-1.9 0.1-3.8-0.3-5.8-0.4q0-3.4 0-6.7z" />
        <path
            d="m120.5 328.4c2.7 0 5.3 0.1 7.9-0.3 1-0.1 2-1.3 2.6-2.2 7.4-10.7 14.7-21.5 22.1-32.2 1.3-2 2.7-4 4.6-5.8q-0.6 1.4-1.3 2.7c-6.2 12.9-12.3 25.9-18.6 38.7-1 2.1-1 3.7 0 5.7 6.2 12.6 12.2 25.3 18.2 37.9 0.5 0.9 0.8 1.8 0.7 2.9-0.6-0.9-1.3-1.8-1.9-2.7-7.9-11.5-15.8-22.9-23.5-34.5-1.3-1.9-2.8-2.8-5-2.8-1.9 0.1-3.8 0-5.8 0q0-3.7 0-7.4z" />
        <path
            d="m120.5 520.6c2.7-0.1 5.3 0 7.9-0.4 1-0.1 2-1.3 2.6-2.2 7.3-10.6 14.6-21.3 21.9-31.9 1.4-2.1 2.9-4.2 4.8-6.1-0.4 0.9-0.8 1.8-1.3 2.7-6.2 13-12.3 25.9-18.6 38.8-1 2-1 3.6 0 5.6 6.2 12.6 12.2 25.3 18.2 37.9 0.5 0.9 0.8 1.8 0.7 2.9q-1-1.3-1.9-2.7c-7.9-11.4-15.8-22.9-23.5-34.4-1.3-2-2.8-2.9-5-2.8-1.9 0-3.8-0.1-5.8-0.1q0-3.7 0-7.3z" />
        <path
            d="m120.5 712.7c2.7-0.1 5.3 0 7.9-0.3 1-0.2 2-1.4 2.6-2.3 7.4-10.7 14.7-21.4 22.1-32.2 1.3-2 2.7-4 4.6-5.8q-0.6 1.4-1.3 2.8c-6.2 12.9-12.3 25.8-18.6 38.7-1 2-1 3.6 0 5.6 6.2 12.6 12.2 25.3 18.2 37.9 0.5 0.9 0.8 1.8 0.7 2.9-0.6-0.8-1.3-1.7-1.9-2.6-7.9-11.5-15.8-23-23.5-34.5-1.3-1.9-2.8-2.8-5-2.8-1.9 0-3.8-0.1-5.8-0.1q0-3.7 0-7.3z" />
        <path
            d="m120.5 136.9c2.9-0.2 6.1 0.3 8.4-0.9 2.2-1.1 3.5-4 5.1-6.2 7.1-10.4 14.2-20.8 21.3-31.2 0.6-0.9 1.3-1.8 2.3-2.5-0.4 1-0.8 2-1.3 2.9-6.1 12.9-12.2 25.7-18.5 38.5-0.9 1.9-0.9 3.4 0 5.4 6.2 12.6 12.2 25.2 18.2 37.9 0.5 0.8 0.8 1.7 0.7 2.9-0.6-0.9-1.3-1.8-1.9-2.7-7.9-11.5-15.8-22.9-23.5-34.5-1.3-1.9-2.8-2.8-5-2.8-1.9 0-3.8 0-5.8-0.1q0-3.3 0-6.7z" />
        <path
            d="m974.4 450.4c-3.7-5.4-7.4-10.9-11.1-16.4-0.9-1.4-2.1-1.9-3.7-2-15.2-1.1-30.4-2.4-45.6-3.5-0.6-0.1-1.2-0.2-1.8-0.5q12.2-0.9 24.3-1.9c7.8-0.6 15.6-1.2 23.4-1.8 1.5-0.1 2.5-0.5 3.3-1.7 3.7-5.6 7.5-11.2 11.2-16.7q0 5.8 0 11.6c-1.6 3.3-3.3 6.5-4.9 9.9-0.2 0.6 0 1.6 0.3 2.2 1.5 3.3 3.1 6.6 4.6 9.8q0 5.5 0 11z" />
        <path
            d="m974.4 258.3c-3.7-5.5-7.4-10.9-11.1-16.4-0.9-1.4-2.1-1.9-3.7-2-15.2-1.2-30.4-2.4-45.6-3.6-0.6 0-1.2-0.1-1.7-0.4q12.1-0.9 24.2-1.9c7.8-0.6 15.6-1.2 23.4-1.8 1.5-0.1 2.5-0.5 3.3-1.8 3.7-5.6 7.5-11.1 11.2-16.6q0 5.8 0 11.6c-1.6 3.3-3.3 6.5-4.9 9.9-0.2 0.6 0 1.5 0.3 2.2 1.5 3.3 3.1 6.6 4.6 9.8q0 5.5 0 11z" />
        <path
            d="m974.4 834.7c-3.7-5.5-7.4-10.9-11.1-16.4-0.9-1.5-2.1-1.9-3.7-2-15.2-1.2-30.4-2.4-45.6-3.6-0.6 0-1.2-0.1-1.7-0.4q12.1-1 24.2-1.9c7.8-0.6 15.6-1.3 23.4-1.8 1.5-0.1 2.5-0.5 3.3-1.8 3.7-5.6 7.5-11.1 11.2-16.6q0 5.7 0 11.5c-1.6 3.3-3.3 6.6-4.9 9.9-0.2 0.6 0 1.6 0.3 2.3 1.5 3.3 3.1 6.5 4.6 9.8q0 5.5 0 11z" />
        <path
            d="m974.4 642.5c-3.7-5.4-7.4-10.8-11.1-16.3-0.9-1.5-2.1-1.9-3.7-2.1-15.2-1.1-30.4-2.3-45.6-3.5-0.6-0.1-1.2-0.1-1.8-0.4q12.2-1 24.3-1.9c7.8-0.7 15.6-1.3 23.4-1.8 1.5-0.1 2.5-0.6 3.3-1.8 3.7-5.6 7.5-11.1 11.2-16.7q0 5.8 0 11.6c-1.6 3.3-3.3 6.6-4.9 9.9-0.2 0.6 0 1.6 0.3 2.3 1.5 3.3 3.1 6.5 4.6 9.8q0 5.5 0 10.9z" />
        <path
            d="m974.4 546.2c-3.5-5.1-7.1-10.1-10.5-15.3-1.3-2-2.8-2.8-5.2-3-14.6-1-29.2-2.1-43.8-3.2-0.3 0-0.6-0.1-1.4-0.2 0.9-0.4 1.4-0.7 1.8-0.7q17-1.3 34.1-2.6c3.4-0.2 6.9-0.6 10.3-0.7 1.7-0.1 2.8-0.8 3.7-2.2 3.6-5.4 7.3-10.7 11-16q0 5.5 0 10.9c-1.6 3.3-3.2 6.5-4.7 9.8-0.3 0.7-0.3 1.8 0 2.5 1.5 3.3 3.1 6.5 4.7 9.7q0 5.5 0 11z" />
        <path
            d="m974.4 354.1c-3.5-5.1-7.1-10.1-10.5-15.3-1.3-2-2.8-2.8-5.1-3-14.5-1-28.9-2.1-43.4-3.2-0.5 0-1-0.1-1.5-0.6 0.6-0.1 1.2-0.3 1.9-0.4 14.4-1.1 28.9-2.2 43.3-3.2 2-0.1 3.4-0.8 4.5-2.5 3.5-5.3 7.2-10.5 10.8-15.8q0 5.5 0 11c-1.6 3.3-3.2 6.5-4.7 9.7-0.3 0.8-0.3 1.9 0 2.6 1.5 3.3 3.1 6.5 4.7 9.7q0 5.5 0 11z" />
        <path
            d="m974.4 738.3c-3.5-5.1-7.1-10.1-10.5-15.3-1.3-2-2.8-2.8-5.2-2.9-14.6-1.1-29.2-2.2-43.8-3.3-0.3 0-0.6-0.1-1-0.4 0.6-0.2 1.1-0.4 1.7-0.5 14.3-1.1 28.6-2.2 42.9-3.2 2.4-0.1 4.1-0.9 5.5-3 3.3-5.2 6.9-10.2 10.4-15.3q0 5.5 0 11c-1.6 3.2-3.2 6.4-4.7 9.7-0.3 0.7-0.3 1.8 0 2.5 1.5 3.3 3.1 6.5 4.7 9.7q0 5.5 0 11z" />
        <path
            d="m974.4 161.9c-3.5-5-7.1-10.1-10.5-15.2-1.3-2-2.8-2.8-5.2-3-14.5-1-29.1-2.2-43.7-3.2-0.3-0.1-0.6-0.1-0.9-0.4 4.8-0.4 9.5-0.9 14.2-1.2q15.8-1.3 31.6-2.4c1.5-0.1 2.5-0.6 3.3-1.8 3.7-5.6 7.5-11.1 11.2-16.7q0 5.8 0 11.6c-1.6 3.2-3.2 6.4-4.8 9.6-0.2 0.6-0.2 1.5 0.1 2 1.5 3.3 3.1 6.5 4.7 9.8q0 5.4 0 10.9z" />
        <path
            d="m355.4 49.1c-2.2 3.3-4.4 6.6-6.6 9.9q-8.9 13.1-17.9 26.2c-0.6 0.9-1.3 1.8-2.2 2.5 2.7-6.6 5.9-13 8.9-19.4q4.6-9.6 9.2-19.2 4.3 0 8.6 0z" />
        <path
            d="m138.8 49.1q9.2 19.2 18.4 38.4-0.2 0.1-0.4 0.3c-0.3-0.3-0.6-0.6-0.8-0.9q-12.6-18.3-25.2-36.7c-0.2-0.3-0.3-0.7-0.5-1.1q4.3 0 8.5 0z" />
        <path
            d="m188.9 49.1c-2.2 3.3-4.4 6.6-6.6 9.9q-8.9 13.1-17.9 26.2c-0.6 0.9-1.3 1.8-2.2 2.5 2.7-6.6 5.8-13 8.9-19.4q4.6-9.6 9.2-19.2 4.3 0 8.6 0z" />
        <path
            d="m305.3 49.1q9.2 19.2 18.4 38.4-0.2 0.1-0.4 0.3c-0.3-0.3-0.6-0.6-0.8-0.9q-12.6-18.3-25.2-36.7c-0.2-0.3-0.3-0.7-0.5-1.1q4.3 0 8.5 0z" />
        <path
            d="m471.9 49.1q9.2 19.2 18.3 38.4-0.2 0.1-0.4 0.3c-0.3-0.4-0.7-0.7-1-1.1q-12.4-18.1-24.8-36.3c-0.3-0.4-0.5-0.9-0.7-1.3q4.3 0 8.6 0z" />
        <path
            d="m521.9 49.1c-2.2 3.2-4.2 6.5-6.4 9.6q-9 13.3-18.1 26.5-0.9 1.3-1.9 2.7c-0.2-0.2-0.3-0.2-0.3-0.3 0-0.1-0.1-0.2-0.1-0.3 0.4-0.9 0.8-1.8 1.2-2.7q8.5-17.8 17-35.5 4.3 0 8.6 0z" />
        <path
            d="m688.4 49.1c-2.2 3.3-4.3 6.6-6.6 9.9q-8.9 13.1-17.9 26.2c-0.6 0.9-1.2 1.8-2.2 2.5 2.7-6.6 5.9-13 8.9-19.4q4.6-9.6 9.2-19.2 4.3 0 8.6 0z" />
        <path
            d="m638.4 49.1q9.2 19.2 18.4 38.4-0.2 0.1-0.5 0.3c-0.2-0.3-0.6-0.6-0.8-0.9q-12.6-18.3-25.2-36.7c-0.2-0.3-0.3-0.7-0.5-1.1q4.3 0 8.6 0z" />
        <path
            d="m854.9 49.1c-2.2 3.3-4.3 6.6-6.6 9.9q-8.9 13.1-17.8 26.2c-0.7 0.9-1.3 1.8-2.3 2.5 2.7-6.6 5.9-13 8.9-19.4q4.6-9.6 9.2-19.2 4.3 0 8.6 0z" />
        <path
            d="m804.9 49.1q9.2 19.2 18.4 38.4-0.2 0.1-0.4 0.3c-0.3-0.3-0.7-0.6-0.9-0.9q-12.6-18.3-25.1-36.7c-0.3-0.3-0.4-0.7-0.6-1.1q4.3 0 8.6 0z" />
        <path
            d="m297.4 903c0.3-0.6 0.5-1.3 0.9-1.9q12.3-17.9 24.6-35.9c0.3-0.4 0.6-0.8 1.3-1-0.4 1-0.8 1.9-1.3 2.8q-7.9 16.6-15.9 33.2c-0.4 0.9-0.7 1.8-1 2.8q-4.3 0-8.6 0z" />
        <path
            d="m463.9 903c0.3-0.6 0.6-1.3 0.9-1.9q12.3-17.9 24.6-35.9c0.3-0.4 0.6-0.8 1.3-1-0.4 0.9-0.8 1.9-1.3 2.8q-7.9 16.5-15.7 32.9c-0.5 1-0.8 2.1-1.2 3.1q-4.3 0-8.6 0z" />
        <path
            d="m130.9 903c0.3-0.6 0.5-1.3 0.9-1.9q12.3-17.9 24.6-35.9c0.3-0.4 0.6-0.8 1.3-1q-0.6 1.4-1.3 2.8-7.9 16.6-15.9 33.2c-0.4 0.9-0.7 1.8-1 2.8q-4.3 0-8.6 0z" />
        <path
            d="m179.7 903c-0.3-1-0.6-1.9-1.1-2.8q-7.9-16.5-15.8-33c-0.4-1-0.8-2-1-3.1 0.5 0.5 0.9 1 1.3 1.6q12.1 17.7 24.2 35.4c0.4 0.6 0.6 1.3 0.9 1.9q-4.2 0-8.5 0z" />
        <path
            d="m346.2 903c-0.4-1-0.7-2.1-1.2-3.1q-7.8-16.3-15.7-32.7c-0.4-1-0.8-2-0.9-3.1 0.4 0.5 0.8 1 1.2 1.6q12.1 17.7 24.2 35.4c0.4 0.6 0.6 1.3 1 1.9q-4.3 0-8.6 0z" />
        <path
            d="m512.7 903c-0.4-1-0.7-2.1-1.2-3.1q-7.8-16.3-15.6-32.7c-0.5-1-0.9-2-1-3.1 0.4 0.5 0.8 1 1.2 1.6q12.1 17.7 24.2 35.4c0.4 0.6 0.7 1.3 1 1.9q-4.3 0-8.6 0z" />
        <path
            d="m630.4 903c0.3-0.6 0.6-1.3 0.9-1.9q12.3-17.9 24.6-35.9c0.3-0.4 0.6-0.8 1.3-1-0.4 1-0.8 1.9-1.3 2.8q-7.9 16.5-15.7 32.9c-0.5 1-0.8 2.1-1.2 3.1q-4.3 0-8.6 0z" />
        <path
            d="m679.2 903c-0.3-1-0.6-1.9-1.1-2.8q-7.8-16.5-15.7-33c-0.5-1-0.9-2-1-3.1 0.4 0.5 0.8 1 1.2 1.6q12.1 17.7 24.3 35.4c0.3 0.6 0.6 1.3 0.9 1.9q-4.3 0-8.6 0z" />
        <path
            d="m796.9 903c0.3-0.6 0.6-1.3 0.9-1.9q12.3-17.9 24.6-35.9c0.3-0.4 0.6-0.8 1.3-1-0.4 1-0.8 1.9-1.3 2.8q-7.9 16.6-15.8 33.2c-0.5 0.9-0.8 1.8-1.1 2.8q-4.3 0-8.6 0z" />
        <path
            d="m845.7 903c-0.3-1-0.6-1.9-1-2.8q-7.9-16.5-15.8-33c-0.5-1-0.9-2-1-3.1 0.4 0.5 0.8 1 1.2 1.6q12.2 17.7 24.3 35.4c0.4 0.6 0.6 1.3 0.9 1.9q-4.3 0-8.6 0z" />
        <path
            d="m120.5 569.4q17.9 1.3 35.8 2.6 0 0.2 0 0.4c-4.3 0.4-8.7 0.8-13.1 1.1-6.5 0.5-13.1 1-19.7 1.5-1 0.1-2 0.3-3 0.5q0-3.1 0-6.1z" />
        <path
            d="m120.5 377.2q17.9 1.4 35.8 2.7 0 0.2 0 0.4c-4.3 0.4-8.7 0.8-13.1 1.1-6.5 0.5-13.1 1-19.7 1.5-1 0-2 0.3-3 0.4q0-3 0-6.1z" />
        <path
            d="m120.5 89.4q17.9 1.3 35.8 2.6 0 0.2 0 0.4c-4.3 0.4-8.7 0.8-13.1 1.1-6.5 0.5-13.1 1-19.7 1.5-1 0.1-2 0.3-3 0.5q0-3.1 0-6.1z" />
        <path
            d="m120.5 761.5q17.9 1.3 35.8 2.7 0 0.2 0 0.3c-4.3 0.4-8.7 0.8-13.1 1.2-6.5 0.5-13.1 0.9-19.7 1.4-1 0.1-2 0.3-3 0.5q0-3.1 0-6.1z" />
        <path
            d="m120.5 185.1q17.9 1.4 35.8 2.7 0 0.2 0 0.4c-4.3 0.3-8.7 0.7-13.1 1.1-6.5 0.5-13.1 0.9-19.7 1.5-1 0-2 0.3-3 0.4q0-3 0-6.1z" />
        <path
            d="m120.5 665.7c1.6 0 3.1-0.1 4.6 0.1q15.2 1.1 30.3 2.4c0.3 0 0.6 0.1 0.9 0.4q-17.9 1.3-35.8 2.6 0-2.7 0-5.5z" />
        <path
            d="m120.5 473.6c1.6 0 3.1-0.1 4.6 0q15.2 1.2 30.3 2.5c0.3 0 0.6 0.1 0.9 0.4q-17.9 1.3-35.8 2.6 0-2.8 0-5.5z" />
        <path
            d="m120.5 857.9c1.6 0 3.1-0.1 4.6 0q15 1.2 30 2.4c0.4 0 0.8 0.1 1.2 0.4q-17.9 1.3-35.8 2.6 0-2.7 0-5.4z" />
        <path
            d="m120.5 281.5c1.6 0 3.1-0.1 4.6 0q15 1.2 30 2.4c0.4 0 0.8 0.1 1.2 0.5q-17.9 1.3-35.8 2.6 0-2.8 0-5.5z" />
        <path d="m974.4 66.2q-5.8-8.6-11.6-17.1 4.3 0 8.6 0 1.5 3 3 6.1 0 5.5 0 11z" />
        <path d="m963.4 903c0.5-0.8 0.8-1.6 1.3-2.4q4.8-7 9.7-14.1 0 5.5 0 11-1.2 2.7-2.4 5.5-4.3 0-8.6 0z" />
        <path
            d="m740.1 424.7c-0.6-0.8-1.3-1.7-1.8-2.5-8.1-11.9-16.3-23.7-24.3-35.5-1.3-1.9-2.7-2.7-4.9-2.8-14.4-1-28.8-2.1-43.2-3.2q-1.8-0.2-3.6-0.8 17.5-1.3 34.9-2.6c4-0.3 8.1-0.7 12.2-0.9 2.1-0.1 3.4-1 4.6-2.7 7.9-11.7 15.8-23.2 23.7-34.8 0.7-1 1.4-1.9 2.5-2.6-0.4 1-0.8 2-1.3 2.9-6 12.5-11.9 25-18 37.4-1.2 2.5-1.3 4.5 0 7 6.2 12.7 12.2 25.5 18.3 38.2 0.5 0.9 0.8 1.8 1.2 2.7q-0.1 0.1-0.3 0.2z" />
        <path
            d="m495.8 764.2c14.7-1.1 29.4-2.3 44.1-3.3 5.8-0.5 5.8-0.4 9-5.1q11.2-16.3 22.4-32.7c0.6-0.9 1.2-1.8 2.4-2.5-0.4 0.9-0.8 1.8-1.2 2.7-6.1 12.8-12.3 25.6-18.5 38.4-0.9 2-0.9 3.5 0 5.4 6.3 13 12.5 26 18.8 39 0.4 0.9 0.7 1.8 0.7 2.9q-0.9-1.3-1.8-2.6c-8.1-11.9-16.2-23.7-24.2-35.5-1.2-1.8-2.5-2.6-4.7-2.7-14.4-1-28.8-2.1-43.2-3.2-1.3-0.2-2.5-0.4-3.8-0.6q0-0.1 0-0.2z" />
        <path
            d="m406.9 808.9q-10.8-15.8-21.6-31.7c-1.6-2.3-3.3-4.6-4.8-7-0.9-1.4-2-1.9-3.5-2q-17.5-1.2-35-2.6c-4.2-0.3-8.5-0.7-12.7-1.4q13.5-1 27-2.1c6.5-0.5 13.1-1 19.7-1.4 2.4-0.2 3.8-1.1 5.2-3 7.7-11.6 15.6-23 23.5-34.5 0.7-1 1.4-1.9 2.5-2.7-0.5 1-0.8 2-1.3 3-6 12.5-12 25.1-18.1 37.6-1.3 2.5-1.1 4.4 0 6.8 6.2 12.7 12.3 25.4 18.4 38.1 0.4 0.9 0.8 1.8 1.2 2.8q-0.2 0-0.5 0.1z" />
        <path
            d="m162.8 764.2q13.5-1 26.9-2.1c6.6-0.5 13.2-1 19.8-1.4 2.4-0.2 3.8-1.1 5.2-3 7.7-11.6 15.6-23 23.5-34.5 0.7-1 1.4-1.9 2.4-2.7-0.3 0.9-0.7 1.8-1.1 2.7-6 12.5-11.9 25.1-18.1 37.6-1.3 2.7-1.2 4.8 0.1 7.3 6.2 12.6 12.1 25.3 18.2 37.9 0.4 0.9 0.8 1.8 0.9 3-0.6-0.9-1.3-1.7-1.9-2.6-8.1-11.8-16.2-23.6-24.2-35.5-1.3-1.9-2.7-2.6-5-2.8-14.3-0.9-28.7-2.1-43.1-3.2-1.2-0.1-2.4-0.3-3.6-0.5q0-0.1 0-0.2z" />
        <path
            d="m162.8 187.8q13.5-1 26.9-2c6.5-0.5 13-1.1 19.5-1.5 2.6-0.1 4.2-1.1 5.6-3.2 7.8-11.6 15.7-23.1 23.6-34.5 0.6-0.9 1.2-1.8 2.3-2.5-0.5 1-0.8 2-1.3 3-6.1 12.7-12.2 25.5-18.4 38.2-1 2-0.9 3.6 0.1 5.6 6.3 12.9 12.4 25.8 18.6 38.8 0.4 0.9 0.8 1.8 0.9 2.9-0.6-0.9-1.3-1.7-1.9-2.5-8.1-11.9-16.2-23.7-24.2-35.5-1.3-1.9-2.7-2.7-4.9-2.8-14.4-1-28.8-2.1-43.2-3.2-1.2-0.1-2.4-0.4-3.6-0.6q0-0.1 0-0.2z" />
        <path
            d="m407.2 144.3c-0.5 1-0.9 2-1.4 3-6.1 12.7-12.2 25.5-18.3 38.2-0.9 1.8-1 3.2-0.1 5.1 6.3 12.9 12.5 26 18.8 39 0.4 0.9 0.8 1.8 0.9 3-0.6-0.8-1.2-1.6-1.8-2.5-8.1-11.8-16.2-23.6-24.2-35.5-1.4-2-2.9-2.7-5.2-2.8-14.3-1-28.6-2.1-42.9-3.2q-1.8-0.2-3.6-0.8 9.4-0.7 18.8-1.4c9.5-0.7 18.9-1.5 28.3-2.2 2-0.1 3.3-0.9 4.4-2.6 7.9-11.6 15.8-23.1 23.7-34.7q1.1-1.5 2.1-3 0.2 0.2 0.5 0.4z" />
        <path
            d="m412 528.2q0.9 1.3 1.8 2.6c7.9 11.6 15.9 23.1 23.7 34.8 1.3 1.9 2.8 2.8 5.2 3 11.8 0.8 23.7 1.7 35.5 2.6 3.7 0.3 7.4 0.6 11.2 1.2-4.1 0.4-8.2 0.8-12.4 1.1-11.7 0.9-23.5 1.8-35.2 2.6-1.9 0.1-2.9 1-3.9 2.4-8.1 11.9-16.2 23.8-24.4 35.7-0.6 0.9-1.3 1.8-2.3 2.5 0.4-0.9 0.8-1.9 1.3-2.8 6.2-12.9 12.3-25.9 18.6-38.7 1-2 1.1-3.6 0.1-5.7-6.3-12.6-12.3-25.4-18.4-38.1-0.5-1-0.8-2-1.3-3q0.2-0.1 0.5-0.2z" />
        <path
            d="m740 232.6q-2.1-3.1-4.3-6.2c-7.2-10.7-14.6-21.3-21.8-32-1.2-1.8-2.6-2.5-4.7-2.6-14.4-1-28.8-2.1-43.1-3.2q-1.9-0.2-3.7-0.8 9.4-0.7 18.8-1.4c9.2-0.7 18.4-1.5 27.7-2.1 2.4-0.1 4-1 5.4-3.1 7.7-11.5 15.5-22.9 23.3-34.3 0.7-1 1.4-2 2.6-2.7-0.4 0.9-0.8 1.8-1.2 2.7-6.2 12.9-12.3 25.7-18.5 38.5-1 1.9-0.9 3.5 0 5.4 6.3 12.9 12.6 26 18.8 39 0.4 0.8 0.7 1.7 1.1 2.6q-0.2 0.1-0.4 0.2z" />
        <path
            d="m245.5 528.2q0.9 1.3 1.8 2.6c8 11.7 16 23.3 23.9 35 1.2 1.8 2.5 2.6 4.6 2.7 12.1 0.9 24.1 1.8 36.2 2.7 3.6 0.3 7.2 0.6 10.9 1.2-4.1 0.4-8.2 0.8-12.4 1.1-11.7 0.9-23.4 1.8-35.2 2.6-1.9 0.1-2.9 0.9-3.9 2.4-8.1 11.9-16.2 23.8-24.4 35.7-0.6 0.9-1.2 1.8-2.3 2.5 0.4-0.8 0.7-1.7 1.1-2.5 6.1-12.8 12.1-25.5 18.4-38.2 1.4-2.7 1.3-4.9-0.1-7.6-6-12.3-11.9-24.6-17.8-37-0.5-1-0.9-2-1.3-3q0.2-0.1 0.5-0.2z" />
        <path
            d="m828.9 764.2q22.5-1.7 45-3.4c0.7-0.1 1.4-0.2 2.1-0.2 2.1 0.1 3.3-0.9 4.4-2.6 7.9-11.6 15.8-23.1 23.8-34.7 0.6-1 1.3-2 2.5-2.8q-0.5 1.3-1.1 2.6c-6.1 12.7-12.2 25.5-18.4 38.2-1.1 2.2-1.1 3.9 0 6.2 6.2 12.8 12.3 25.6 18.5 38.4 0.4 0.9 0.8 1.9 0.9 3.1q-0.9-1.2-1.8-2.5c-8.1-11.8-16.2-23.6-24.2-35.5-1.3-2-2.9-2.7-5.2-2.9-14.3-0.9-28.6-2.1-42.9-3.2-1.2-0.1-2.4-0.3-3.6-0.5q0-0.1 0-0.2z" />
        <path
            d="m906.5 232.6q-4.8-7-9.6-14c-5.5-8.1-11-16.1-16.5-24.2-1.1-1.6-2.3-2.5-4.4-2.6-14.4-1-28.8-2.1-43.2-3.2q-1.9-0.1-3.9-0.8 9.4-0.7 18.8-1.4c9.4-0.7 18.7-1.5 28-2.1 2.3-0.2 3.6-1 4.9-2.9 7.8-11.5 15.7-23 23.6-34.5 0.6-1 1.3-2 2.5-2.7-0.4 0.9-0.8 1.8-1.2 2.8-6 12.5-12 25.1-18.1 37.6-1.2 2.4-1.3 4.3-0.1 6.8 6.2 12.6 12.3 25.4 18.4 38.2q0.6 1.3 1.3 2.7-0.2 0.2-0.5 0.3z" />
        <path
            d="m411.2 424.5q9.7-20.3 19.5-40.7c0.1-0.3 0.3-0.7 0.5-1.1 1.1-1.7 1-3.2 0.1-5.1-6.3-12.7-12.4-25.6-18.5-38.4-0.5-0.9-0.9-1.9-0.8-3.1q0.9 1.3 1.8 2.6c7.9 11.5 15.8 22.9 23.5 34.5 1.5 2.2 3.1 3.1 5.7 3.3 11.8 0.8 23.7 1.7 35.5 2.6 3.6 0.3 7.2 0.6 10.9 1.2-4.3 0.4-8.5 0.8-12.7 1.1-11.6 0.9-23.3 1.8-34.9 2.6-1.9 0.1-2.9 1-3.9 2.4-8.1 11.9-16.3 23.8-24.4 35.7q-1 1.4-1.9 2.7-0.2-0.2-0.4-0.3z" />
        <path
            d="m578.5 720.3q2.8 4 5.5 8c6.8 9.9 13.6 19.8 20.3 29.7 1.1 1.7 2.4 2.5 4.4 2.6 11.9 0.9 23.9 1.8 35.8 2.7 3.8 0.3 7.5 0.6 11.3 1.2-3.8 0.4-7.6 0.8-11.5 1.1-11.8 0.9-23.7 1.8-35.5 2.6-2.1 0.1-3.3 0.8-4.5 2.5-8 12-16.2 23.8-24.4 35.7-0.6 0.9-1.2 1.8-2.2 2.4q0.6-1.3 1.2-2.6c6.2-12.9 12.3-25.9 18.6-38.7 1.1-2.3 1.1-4 0-6.2-6.1-12.5-12.1-25.1-18.1-37.6-0.5-1-0.9-2-1.4-3q0.3-0.2 0.5-0.4z" />
        <path
            d="m411.2 808.8q1.5-3.3 3.1-6.6c5.6-11.8 11.3-23.6 17-35.4 0.9-1.7 0.8-3.1 0-4.8-6.2-12.9-12.4-25.8-18.6-38.7-0.4-0.9-0.8-1.8-0.7-3q0.9 1.3 1.8 2.6c7.9 11.6 16 23.3 23.8 35 1.2 1.7 2.5 2.6 4.7 2.7 11.9 0.9 23.9 1.8 35.8 2.7 3.8 0.3 7.5 0.6 11.3 1.2-4.4 0.4-8.8 0.8-13.2 1.2-11.5 0.8-23.1 1.7-34.6 2.5-1.8 0.1-2.7 1-3.6 2.4q-12.2 17.8-24.5 35.7-0.9 1.3-1.8 2.7-0.3-0.1-0.5-0.2z" />
        <path
            d="m245.5 336.1q0.9 1.3 1.8 2.5c8 11.7 16 23.3 23.8 35 1.2 1.8 2.6 2.6 4.7 2.8 11.9 0.8 23.9 1.8 35.8 2.7 3.8 0.3 7.5 0.5 11.3 1.2-4.1 0.3-8.2 0.7-12.3 1.1-11.8 0.9-23.5 1.8-35.3 2.5-1.8 0.2-2.9 1-3.9 2.4-8.1 12-16.2 23.8-24.4 35.7-0.6 1-1.2 1.9-2.3 2.6 0.4-0.9 0.8-1.9 1.3-2.8 6.2-13 12.4-26 18.7-39 0.9-1.9 0.9-3.4 0-5.3-6.3-12.8-12.4-25.6-18.5-38.5-0.4-0.8-0.8-1.8-1.2-2.7q0.2-0.1 0.5-0.2z" />
        <path
            d="m740.1 616.9q-0.9-1.3-1.9-2.6c-8-11.8-16.1-23.5-24-35.3-1.4-2.1-3-2.8-5.5-3-14.3-1-28.6-2.1-42.8-3.2q-1.8-0.1-3.6-0.7 17.3-1.4 34.6-2.7c4.3-0.3 8.5-0.7 12.8-0.9 1.9-0.1 3.1-0.9 4.2-2.5 7.9-11.8 16-23.5 24-35.2 0.6-0.9 1.2-1.8 2.3-2.4-0.4 0.9-0.8 1.8-1.2 2.7-6.1 12.8-12.2 25.7-18.5 38.5-0.9 1.9-0.9 3.4 0 5.3 6.3 13 12.5 26 18.7 39.1 0.5 0.8 0.8 1.8 1.2 2.6q-0.1 0.2-0.3 0.3z" />
        <path
            d="m407 616.9q-4.8-7-9.6-14c-5.6-8.2-11.2-16.3-16.7-24.4-1-1.7-2.2-2.3-4.2-2.4-14.4-1-28.7-2.2-43.1-3.3-1.3-0.1-2.6-0.3-4-0.7q9.3-0.8 18.5-1.5c9.2-0.7 18.4-1.4 27.6-2 2.7-0.2 4.4-1.1 5.9-3.4 7.6-11.4 15.5-22.7 23.2-34 0.7-1 1.4-2 2.6-2.8-0.4 1-0.8 1.9-1.2 2.8-6.1 12.7-12.2 25.5-18.4 38.2-1.1 2.2-1 3.8 0.1 5.9 6.2 12.8 12.3 25.6 18.4 38.5q0.7 1.3 1.3 2.7-0.2 0.2-0.4 0.4z" />
        <path
            d="m240.5 424.8q-4.8-7-9.6-14.1c-5.6-8.1-11.2-16.2-16.7-24.4-1.1-1.6-2.3-2.2-4.2-2.4-14.4-1-28.8-2.1-43.2-3.2q-1.9-0.1-3.9-0.8 9.4-0.7 18.8-1.4c9.3-0.7 18.6-1.5 28-2.1 2.2-0.1 3.6-1 4.9-2.8 7.7-11.6 15.7-23.1 23.5-34.6 0.7-0.9 1.4-1.9 2.6-2.7-0.4 0.8-0.7 1.7-1.1 2.5-6 12.6-12 25.2-18.1 37.6-1.3 2.7-1.4 4.7-0.1 7.4 6.2 12.5 12.2 25.2 18.2 37.9q0.7 1.3 1.3 2.7-0.2 0.2-0.4 0.4z" />
        <path
            d="m745 528.2q1 1.4 2 2.8c7.9 11.6 15.8 23.1 23.7 34.8 1.2 1.7 2.5 2.6 4.6 2.7 11.9 0.8 23.7 1.8 35.6 2.7 3.8 0.3 7.7 0.6 11.5 1.2-4.1 0.4-8.2 0.8-12.3 1.1-11.8 0.9-23.5 1.8-35.3 2.6-1.8 0.1-2.9 0.9-3.8 2.4-8.1 11.9-16.3 23.8-24.5 35.7-0.6 0.9-1.2 1.8-2.2 2.5 0.4-0.9 0.7-1.9 1.2-2.8 6.2-13 12.4-26 18.7-39 1-1.9 0.9-3.4 0-5.3-6.2-12.7-12.3-25.5-18.4-38.2-0.4-1-0.8-2-1.3-3q0.3-0.1 0.5-0.2z" />
        <path
            d="m573.7 144.3c-0.5 1-0.9 2-1.4 3-6 12.6-12.1 25.3-18.2 37.9-1 2-1.1 3.6-0.1 5.6 6.3 12.9 12.5 25.8 18.7 38.8 0.4 0.9 0.8 1.8 0.9 3-0.6-0.8-1.2-1.6-1.8-2.4-8.1-11.9-16.2-23.7-24.2-35.6-1.3-1.8-2.6-2.7-4.9-2.8-14.4-1-28.8-2.1-43.2-3.2q-1.8-0.2-3.6-0.8 9.4-0.7 18.8-1.4c9.5-0.7 18.9-1.5 28.3-2.2 2-0.1 3.3-0.9 4.4-2.5 7.9-11.7 15.8-23.2 23.7-34.8q1.1-1.5 2.1-3 0.2 0.2 0.5 0.4z" />
        <path
            d="m828.8 572.1q17.5-1.4 34.9-2.7c4.2-0.3 8.3-0.7 12.5-0.9 1.9-0.1 3.1-0.9 4.2-2.5 7.9-11.8 16-23.5 24-35.2 0.6-0.9 1.2-1.8 2.3-2.4-0.4 1-0.8 2-1.3 3-6.1 12.7-12.2 25.5-18.4 38.2-0.9 1.9-0.9 3.4 0 5.4 6.3 12.9 12.5 25.9 18.8 39 0.4 0.8 0.8 1.8 0.8 2.9-0.6-0.9-1.3-1.8-1.9-2.6-8.1-11.9-16.2-23.7-24.2-35.5-1.3-1.9-2.7-2.6-5-2.8-14.4-1-28.7-2.1-43.1-3.2-1.2-0.1-2.4-0.4-3.6-0.5q0-0.1 0-0.2z" />
        <path
            d="m240.6 616.9c-0.6-0.9-1.3-1.7-1.9-2.6-8.1-11.8-16.2-23.6-24.2-35.5-1.3-1.9-2.7-2.6-5-2.8-14.4-1-28.8-2.1-43.1-3.2q-1.8-0.1-3.6-0.7 17.5-1.4 34.9-2.7c4-0.3 8.1-0.7 12.1-0.9 2.2-0.1 3.5-1 4.7-2.7 7.9-11.7 15.9-23.4 23.9-35 0.6-0.9 1.2-1.8 2.3-2.4-0.5 1-0.9 2-1.3 3-6.1 12.7-12.2 25.5-18.4 38.2-0.9 1.9-1 3.4 0 5.3 6.3 13 12.5 26 18.7 39.1 0.4 0.8 0.8 1.8 1.2 2.6q-0.1 0.2-0.3 0.3z" />
        <path
            d="m906.6 424.7c-0.6-0.8-1.2-1.7-1.8-2.5-8.1-11.9-16.3-23.7-24.3-35.5-1.3-1.9-2.7-2.7-4.9-2.8-14.4-1-28.8-2.1-43.2-3.2q-1.8-0.2-3.5-0.8 17.4-1.3 34.8-2.6c4-0.3 8.1-0.7 12.2-0.9 2.1-0.1 3.4-1 4.6-2.7 7.9-11.7 15.9-23.4 23.9-35 0.6-0.9 1.2-1.8 2.3-2.4-0.4 1-0.8 2-1.3 3-6.1 12.6-12.1 25.3-18.2 37.9-1.1 2.1-1.1 3.7-0.1 5.9 6.3 12.8 12.4 25.6 18.5 38.4 0.5 1 0.9 2 1.3 3q-0.1 0.1-0.3 0.2z" />
        <path
            d="m578.5 336.1q1 1.4 2.1 2.9c7.9 11.6 15.8 23.1 23.7 34.7 1.1 1.7 2.3 2.5 4.4 2.7 11.9 0.8 23.9 1.8 35.8 2.7 3.7 0.3 7.5 0.5 11.3 1.1-1.6 0.2-3.2 0.5-4.8 0.6-14.2 1.1-28.5 2.2-42.8 3.2-1.9 0.1-2.9 1-3.8 2.5-8.1 11.9-16.3 23.8-24.5 35.7-0.6 0.9-1.2 1.7-2.2 2.4q0.6-1.3 1.2-2.7c6.3-13 12.5-26.2 18.9-39.2 0.9-1.9 0.8-3.3-0.1-5.1-6.1-12.7-12.2-25.4-18.3-38.2-0.5-0.9-0.9-2-1.4-3q0.3-0.2 0.5-0.3z" />
        <path
            d="m739.7 520.3q-2-2.9-4-5.7c-7.3-10.7-14.6-21.3-21.8-32-1.1-1.7-2.4-2.4-4.4-2.6-15.7-1.1-31.4-2.3-47.2-3.9q7.6-0.6 15.2-1.2c10.9-0.9 21.9-1.8 32.8-2.5 1.9-0.1 2.7-1.2 3.5-2.5q11.9-17.3 23.8-34.7c0.8-1.2 1.7-2.5 3-3.5q-0.7 1.5-1.4 3c-6.2 13-12.4 26-18.7 39-0.9 1.8-0.9 3.2-0.1 5.1 6.2 12.7 12.3 25.4 18.4 38.2 0.5 0.9 0.9 2 1.3 3q-0.2 0.1-0.4 0.3z" />
        <path
            d="m162.9 476q11.1-0.8 22.1-1.7c8.5-0.7 17.1-1.3 25.6-1.9 1.8-0.1 2.7-1 3.6-2.3q12.2-17.9 24.4-35.7c0.7-1 1.4-1.9 2.4-2.6q-0.6 1.3-1.2 2.7c-6.1 12.7-12.1 25.5-18.4 38.1-1.3 2.7-1.2 4.8 0.1 7.4 6 12.3 11.9 24.7 17.8 37 0.5 1 0.9 2 0.9 3.3-0.6-0.9-1.2-1.7-1.8-2.5-8-11.7-16-23.3-23.9-35-1.2-1.8-2.5-2.6-4.6-2.8-14.9-1-29.8-2.2-44.7-3.4q-1.2-0.1-2.4-0.1 0-0.2 0.1-0.5z" />
        <path
            d="m822.4 764.5c-4.1 0.4-8.2 0.8-12.4 1.1-11.7 0.9-23.5 1.8-35.2 2.6-1.9 0.1-2.9 1-3.9 2.4-8.1 12-16.2 23.9-24.4 35.8-0.6 0.9-1.2 1.8-2.3 2.5 0.4-1 0.9-2 1.3-2.9 6.2-12.9 12.3-25.8 18.6-38.7 1-2 1.1-3.6 0.1-5.7-6.2-12.6-12.3-25.4-18.4-38.1-0.4-1-0.8-2-0.8-3.2q0.9 1.3 1.8 2.7c8 11.5 15.9 23.1 23.7 34.7 1.4 2 2.8 2.8 5.2 3 11.8 0.8 23.7 1.7 35.5 2.6q5.6 0.5 11.2 0.9 0 0.2 0 0.3z" />
        <path
            d="m329.4 668.2q11-0.9 22.1-1.8c8.5-0.6 17-1.3 25.5-1.9 2-0.1 2.9-1.1 3.8-2.5q12-17.5 24-35c0.7-1.1 1.5-2.2 2.7-3.1q-0.6 1.3-1.2 2.6c-6.3 13.1-12.5 26.3-18.9 39.3-0.9 1.9-0.8 3.3 0.1 5.1 6.1 12.7 12.2 25.5 18.3 38.2 0.5 1 0.9 2 0.9 3.3-0.6-0.9-1.2-1.7-1.8-2.5-8-11.6-16-23.3-23.9-35-1.2-1.8-2.4-2.6-4.6-2.7-15.7-1.2-31.4-2.4-47.1-3.6q0-0.2 0.1-0.4z" />
        <path
            d="m241 239.7c-6.5 13.7-13 27.4-19.7 41-1.1 2.4-1.2 4.3 0 6.7 6.1 12.4 12 24.9 18 37.4 0.4 1 0.9 2 0.9 3.3-0.5-0.8-1.2-1.5-1.7-2.3-8-11.7-16-23.3-23.9-35.1-1.3-1.8-2.6-2.7-4.9-2.8-15.6-1.1-31.2-2.4-46.8-3.9 4.3-0.4 8.6-0.8 12.9-1.1 11.5-0.9 23.1-1.8 34.6-2.6 1.9-0.1 2.9-1 3.9-2.4q12.2-17.9 24.4-35.8 1-1.3 1.9-2.7 0.2 0.2 0.4 0.3z" />
        <path
            d="m407.5 239.7q-8.8 18.4-17.6 36.8c-0.9 1.9-1.7 3.8-2.7 5.5-1 1.7-0.5 3 0.2 4.6 6.2 12.8 12.3 25.6 18.5 38.4 0.4 1 0.8 2 0.8 3.2q-0.9-1.3-1.9-2.7c-8-11.6-15.9-23.3-23.9-35-1.1-1.6-2.3-2.4-4.4-2.6-14.9-1-29.8-2.2-44.6-3.4-0.9-0.1-1.8-0.1-2.7-0.5 4.2-0.4 8.3-0.8 12.5-1.1 11.6-0.9 23.3-1.8 34.9-2.6 2-0.1 3.1-0.8 4.2-2.4 8.1-12 16.3-23.9 24.4-35.8q1-1.3 1.9-2.7 0.2 0.2 0.4 0.3z" />
        <path
            d="m573.2 328.2q-0.9-1.3-1.8-2.6c-8-11.6-15.9-23.2-23.8-34.8-1.2-1.8-2.5-2.8-4.8-2.9-14.8-1-29.6-2.2-44.4-3.4-0.9-0.1-1.8-0.1-2.7-0.5 4.1-0.4 8.3-0.8 12.4-1.1 11.7-0.9 23.3-1.8 35-2.6 1.9-0.1 3.1-0.8 4.2-2.4 7.9-11.8 16-23.5 24-35.2 0.8-1.1 1.5-2.2 2.7-3.1-0.5 1-0.8 1.9-1.2 2.8-6.3 13-12.5 26.1-18.8 39-0.9 2-0.9 3.5 0 5.4 6.2 12.7 12.3 25.4 18.4 38.2 0.4 1 0.8 2 1.2 3q-0.2 0.1-0.4 0.2z" />
        <path
            d="m739.7 328.2q-1.8-2.6-3.6-5.3c-7.4-10.7-14.8-21.4-22-32.2-1.2-1.8-2.5-2.6-4.6-2.8-15.8-1.1-31.5-2.4-47.2-3.9q7.5-0.7 14.9-1.3c11.1-0.8 22.1-1.7 33.1-2.4 1.9-0.1 2.7-1.3 3.5-2.5q12-17.5 24-35c0.7-1.1 1.5-2.3 2.7-3.2q-0.6 1.5-1.3 3c-6.2 13-12.4 26-18.8 39-0.9 1.8-0.8 3.2 0.1 5.1 6.1 12.7 12.2 25.4 18.3 38.1 0.5 1 0.9 2.1 1.4 3.1q-0.3 0.1-0.5 0.3z" />
        <path
            d="m822.3 284.3c-15.8 1.2-31.6 2.5-47.4 3.7-1.8 0.1-2.9 0.8-3.9 2.3-8 11.7-16.1 23.4-24.1 35.2-0.6 0.9-1.3 1.8-2.4 2.5 0.4-1 0.8-2 1.3-2.9 6.1-12.8 12.2-25.7 18.5-38.4 0.8-1.9 0.9-3.3 0-5.1-6.3-13-12.5-26-18.8-39-0.4-0.9-0.8-1.9-1.4-3 1.3 0.5 1.7 1.5 2.2 2.3 8.1 11.8 16.2 23.6 24.3 35.5 1.3 1.9 2.7 2.8 5.1 3 15.1 1 30.2 2.3 45.3 3.5 0.5 0 0.9 0.1 1.4 0.2q0 0.1-0.1 0.2z" />
        <path
            d="m406.9 424.7q-10.9-16-21.8-32c-1.6-2.2-3.2-4.4-4.6-6.8-0.9-1.3-2-1.8-3.5-1.9q-17.5-1.3-35-2.6c-4.2-0.3-8.4-0.7-12.7-1.5q13.5-1 26.9-2c6.6-0.5 13.2-1.1 19.8-1.5 2.4-0.1 3.8-1 5.2-3 7.7-11.5 15.6-23 23.5-34.5 0.7-0.9 1.4-1.9 2.5-2.6-0.5 0.9-0.8 2-1.3 2.9-6.1 12.8-12.2 25.5-18.4 38.2-1 2.1-0.9 3.6 0.1 5.7 6.3 12.8 12.4 25.8 18.6 38.7 0.4 0.9 0.8 1.8 1.2 2.7q-0.2 0.1-0.5 0.2z" />
        <path
            d="m573.7 336.4c-0.5 1-0.9 2-1.4 3-5.9 12.3-11.8 24.7-17.8 37-1.3 2.6-1.4 4.7-0.1 7.4 6.2 12.5 12.2 25.2 18.3 37.9 0.4 0.9 0.8 1.8 0.8 3q-0.8-1.2-1.7-2.4c-8.1-11.8-16.2-23.6-24.2-35.5-1.3-2-2.8-2.8-5.2-2.9-14.3-1-28.6-2.1-42.9-3.2q-1.8-0.1-3.6-0.8 9.4-0.7 18.8-1.4c9.3-0.7 18.7-1.5 28-2.1 2.2-0.1 3.6-1 4.9-2.9 7.8-11.5 15.7-23 23.5-34.5q1.1-1.5 2.1-2.9 0.2 0.1 0.5 0.3z" />
        <path
            d="m822.4 380.3c-4.2 0.4-8.5 0.8-12.7 1.1-11.6 0.9-23.3 1.8-34.9 2.6-1.9 0.1-2.9 1-3.9 2.4-8.1 11.9-16.2 23.8-24.4 35.7-0.6 0.9-1.3 1.8-2.3 2.5 0.4-0.9 0.8-1.7 1.2-2.6 6.2-13.1 12.5-26.2 18.8-39.2 0.9-1.9 1-3.3 0.1-5.1-6.2-12.8-12.4-25.6-18.5-38.5-0.4-0.9-0.8-1.9-0.8-3.1q0.9 1.3 1.8 2.6c7.9 11.5 15.8 22.9 23.6 34.5 1.4 2.2 3 3.1 5.6 3.3 11.8 0.8 23.7 1.7 35.5 2.6q5.5 0.4 10.9 0.8 0 0.2 0 0.4z" />
        <path
            d="m907 431.8q-0.5 1.3-1.2 2.6c-6.2 13.1-12.5 26.2-18.9 39.3-0.9 1.9-0.8 3.3 0.1 5.1 6.1 12.7 12.2 25.4 18.3 38.2 0.5 1 0.9 2 1 3.2-0.6-0.8-1.3-1.6-1.8-2.4-8-11.6-16-23.3-23.9-35-1.2-1.7-2.5-2.6-4.7-2.8-15.7-1.1-31.4-2.3-47.1-3.9q7.6-0.6 15.2-1.2c11-0.9 21.9-1.8 32.9-2.5 1.8-0.1 2.6-1.2 3.5-2.5q11.9-17.5 23.9-35 1.2-1.7 2.3-3.4 0.2 0.1 0.4 0.3z" />
        <path
            d="m411.6 431.6q0.9 1.3 1.9 2.7c8 11.6 16 23.2 23.9 35 1.4 2.1 2.9 3 5.6 3.2 15 1 29.9 2.3 44.9 3.5 0.5 0 1 0.1 1.5 0.4q-12.7 1-25.3 2c-7.4 0.6-14.8 1.2-22.2 1.7-1.8 0.1-2.9 0.8-3.9 2.3-8 11.7-16.1 23.5-24.1 35.2-0.6 0.9-1.3 1.8-2.4 2.5 0.4-1 0.8-1.9 1.3-2.9 6.1-12.7 12.1-25.4 18.3-38.1 1-2.1 1-3.6 0-5.7-6.3-12.9-12.5-26-18.7-39q-0.6-1.3-1.2-2.6 0.2-0.1 0.4-0.2z" />
        <path
            d="m822.4 476.4c-15.7 1.3-31.4 2.5-47.1 3.6-2.2 0.2-3.5 1.1-4.7 2.8-7.8 11.6-15.7 23.2-23.7 34.8-0.6 0.9-1.2 1.8-2.4 2.5 0.4-0.9 0.7-1.7 1.1-2.5 6-12.6 12-25.2 18.1-37.6 1.4-2.8 1.3-4.9 0-7.6-6.3-12.6-12.2-25.3-18.3-37.9-0.4-0.9-0.8-1.8-0.8-2.9 0.6 0.9 1.2 1.7 1.9 2.6 8 11.8 16.2 23.6 24.2 35.5 1.3 1.9 2.7 2.6 4.9 2.8 15.2 1.1 30.4 2.3 45.6 3.5 0.4 0.1 0.8 0.1 1.2 0.2q0 0.1 0 0.2z" />
        <path
            d="m407.6 431.7q-0.7 1.5-1.4 2.9c-6.2 13-12.4 26.1-18.7 39.1-0.9 1.8-1 3.2-0.1 5.1 6.2 12.6 12.3 25.4 18.4 38.1 0.5 1 0.9 2 1 3.3-0.6-0.8-1.3-1.5-1.8-2.4-8-11.6-16-23.2-23.9-35-1.3-1.8-2.7-2.6-4.9-2.8-15.6-1.1-31.2-2.4-46.9-3.9q7.4-0.6 14.9-1.2c11-0.9 22-1.8 33.1-2.5 1.8-0.1 2.6-1.2 3.5-2.5q11.9-17.3 23.8-34.7 1.2-1.8 2.5-3.7 0.2 0.1 0.5 0.2z" />
        <path
            d="m578 520c0.5-1 0.9-2 1.4-3 6.1-12.8 12.2-25.5 18.3-38.2 0.9-1.8 1-3.2 0.1-5.1-6.4-13-12.5-26-18.8-39-0.4-1-0.9-1.9-0.9-3.1q0.9 1.3 1.9 2.7c8 11.7 16.1 23.4 24 35.2 1.4 2.1 3 2.8 5.5 3 15 1.1 29.9 2.3 44.9 3.5 0.5 0 1 0.1 1.5 0.4q-12.7 1-25.3 2c-7.3 0.6-14.6 1.2-21.9 1.6-2 0.2-3.3 0.9-4.4 2.6-7.9 11.7-15.9 23.3-23.9 35q-0.9 1.4-1.9 2.7-0.2-0.2-0.5-0.3z" />
        <path
            d="m244.7 808.8q0.6-1.3 1.2-2.6c6.2-13 12.4-26 18.7-39 1.1-2.1 1-3.6 0-5.7-6.2-12.5-12.2-25.2-18.2-37.8-0.5-1-0.9-2-1-3.3 0.6 0.8 1.2 1.6 1.8 2.4 8 11.6 16 23.3 23.9 35 1.2 1.8 2.6 2.7 4.9 2.9 11.8 0.8 23.7 1.7 35.5 2.6 3.8 0.3 7.5 0.6 11.3 1.1-1.6 0.2-3.2 0.5-4.8 0.6-14.3 1.1-28.6 2.2-42.8 3.2-1.9 0.1-2.9 1.1-3.9 2.5q-12.1 17.9-24.4 35.7c-0.6 0.9-1.2 1.8-1.9 2.6q-0.1-0.1-0.3-0.2z" />
        <path
            d="m822.4 668.6c-14.3 1.1-28.6 2.2-42.9 3.2-7 0.5-7 0.4-10.9 6.2q-10.8 15.8-21.7 31.7c-0.6 0.9-1.2 1.8-2.4 2.5 0.4-0.9 0.8-1.9 1.2-2.8 6.2-12.8 12.3-25.6 18.5-38.4 1-2 0.9-3.5 0-5.4-6.3-12.9-12.5-26-18.8-39-0.4-0.9-0.8-1.8-0.8-2.9 0.6 0.9 1.2 1.7 1.8 2.6 8.1 11.8 16.3 23.6 24.3 35.5 1.2 1.9 2.6 2.7 4.9 2.8 15.2 1.1 30.4 2.3 45.6 3.5 0.4 0.1 0.7 0.2 1.1 0.2q0.1 0.1 0.1 0.3z" />
        <path
            d="m322.8 188.2c-4.1 0.3-8.1 0.7-12.1 1-11.8 0.9-23.5 1.8-35.3 2.6-1.8 0.1-2.9 0.8-3.9 2.3-8.2 12-16.4 24-24.6 36-0.6 0.9-1.2 1.7-2.2 2.3q0.6-1.3 1.2-2.6c6.2-12.9 12.4-25.9 18.6-38.7 1-2.1 1.1-3.8 0.1-6-6.2-12.6-12.2-25.2-18.2-37.8-0.5-1-0.9-2-1-3.3 0.6 0.8 1.3 1.6 1.8 2.5 7.9 11.5 15.9 23 23.7 34.7 1.4 2.1 3 3 5.4 3.1 11.8 0.8 23.5 1.8 35.2 2.7q5.7 0.4 11.3 0.8 0 0.2 0 0.4z" />
        <path
            d="m489.3 188.2c-3.7 0.3-7.4 0.7-11.2 1-11.8 0.9-23.6 1.8-35.5 2.6-2.3 0.1-3.7 0.9-4.9 2.8-8 11.8-16.2 23.6-24.3 35.4-0.6 0.9-1.2 1.8-2.2 2.5q0.6-1.4 1.2-2.7c6.3-13.1 12.5-26.2 18.9-39.2 0.9-1.9 0.8-3.3-0.1-5.1-6.1-12.7-12.2-25.5-18.3-38.2-0.5-1-0.9-2-1-3.3 0.6 0.8 1.2 1.6 1.8 2.4 8 11.7 16 23.3 23.9 35 1.2 1.8 2.6 2.7 4.9 2.9 11.8 0.8 23.7 1.8 35.5 2.7q5.6 0.4 11.2 0.8 0.1 0.2 0.1 0.4z" />
        <path
            d="m906.2 328.2q-1.8-2.6-3.6-5.3c-7.4-10.7-14.8-21.4-22-32.2-1.2-1.7-2.4-2.6-4.6-2.8-15.7-1.1-31.4-2.4-47.2-3.9 5.1-0.5 10.1-0.9 15.2-1.3 11-0.8 21.9-1.7 32.8-2.4 1.9-0.1 2.7-1.2 3.5-2.5q11.9-17.4 23.8-34.7c0.8-1.3 1.7-2.5 3-3.5q-0.7 1.5-1.4 2.9c-6.2 13.1-12.4 26.1-18.7 39.1-0.9 1.8-0.9 3.2 0 5.1 6.1 12.7 12.2 25.4 18.3 38.1 0.5 1 0.9 2 1.4 3q-0.3 0.2-0.5 0.4z" />
        <path
            d="m744.2 232.5q0.6-1.4 1.2-2.7c6.3-13.1 12.5-26.2 18.9-39.2 0.9-1.9 0.8-3.3 0-5.1-6.2-12.7-12.3-25.4-18.4-38.2-0.5-1-0.9-2-1-3.3 0.6 0.8 1.2 1.6 1.8 2.4 8 11.6 16 23.3 23.9 35 1.2 1.8 2.6 2.7 4.9 2.9 11.8 0.8 23.6 1.8 35.5 2.7 3.7 0.2 7.5 0.5 11.3 1.1-1.4 0.1-2.8 0.4-4.1 0.5-14.4 1.1-28.8 2.2-43.2 3.2-1.9 0.1-3.1 1-4.1 2.5-8.1 11.9-16.3 23.8-24.4 35.7q-1 1.4-1.9 2.7-0.2-0.1-0.4-0.2z" />
        <path
            d="m655.9 668.6q-12.7 0.9-25.4 1.9c-7.3 0.6-14.7 1.2-22.1 1.7-1.9 0.1-3 0.8-4 2.3-7.9 11.8-16 23.5-24 35.3-0.6 0.9-1.3 1.8-2.4 2.4 0.4-0.9 0.8-1.9 1.3-2.9 6.1-12.8 12.2-25.6 18.5-38.4 0.9-1.8 0.8-3.3-0.1-5.1-6.3-13-12.5-26-18.7-39-0.4-0.9-0.9-1.8-0.9-3.1q0.9 1.2 1.7 2.5c8.1 11.8 16.2 23.6 24.2 35.4 1.4 2 2.8 2.9 5.2 3 15.1 1.1 30.2 2.3 45.3 3.5 0.5 0.1 0.9 0.2 1.4 0.2q0 0.1 0 0.3z" />
        <path
            d="m240.2 712.4q-1.8-2.6-3.7-5.2c-7.3-10.7-14.7-21.5-22-32.2-1.1-1.8-2.4-2.7-4.6-2.8-15.7-1.2-31.4-2.4-47.1-4 5-0.4 9.9-0.8 14.9-1.2 11-0.9 22.1-1.7 33.1-2.5 1.9-0.1 2.6-1.2 3.5-2.5q12-17.5 23.9-34.9c0.8-1.2 1.6-2.3 2.8-3.2q-0.6 1.3-1.2 2.6c-6.3 13.1-12.5 26.2-18.9 39.3-0.9 1.9-0.9 3.3 0 5.1 6.2 12.7 12.3 25.5 18.4 38.2 0.5 1 0.9 2 1.3 3q-0.2 0.2-0.4 0.3z" />
        <path
            d="m489 668.6q-12.4 1-24.9 1.9c-7.3 0.6-14.6 1.2-21.9 1.7-2.2 0.1-3.4 1-4.6 2.8-7.8 11.6-15.8 23.1-23.7 34.7-0.6 0.9-1.3 1.8-2.4 2.5 0.4-0.9 0.8-1.9 1.2-2.8 6.1-12.7 12.2-25.5 18.4-38.2 1-2 1.1-3.6 0-5.6-6.3-12.9-12.4-25.9-18.6-38.8-0.4-0.9-0.9-1.9-0.9-3.1q0.9 1.3 1.9 2.7c8 11.7 16.1 23.4 24 35.2 1.4 2 2.8 2.9 5.2 3 14.1 1 28.2 2.1 42.2 3.2 1.4 0.1 2.8 0.3 4.2 0.5q0 0.1-0.1 0.3z" />
        <path
            d="m578.5 528.2q3.7 5.4 7.4 10.8c6.1 8.9 12.2 17.7 18.2 26.7 1.3 1.9 2.7 2.7 4.9 2.8 11.9 0.9 23.7 1.8 35.6 2.7 3.7 0.3 7.5 0.6 11.2 1.2-4.3 0.4-8.7 0.8-13 1.1-11.6 0.9-23.1 1.8-34.7 2.6-1.9 0.1-2.8 1.1-3.8 2.5q-12.2 17.9-24.4 35.7c-0.6 0.9-1.2 1.8-2.2 2.4q0.6-1.4 1.2-2.7c6.2-12.9 12.4-25.8 18.6-38.7 1.1-2.1 1.2-3.8 0.1-5.9-6.2-12.6-12.2-25.3-18.2-37.9-0.5-1-0.9-2-1.4-3q0.3-0.1 0.5-0.3z" />
        <path
            d="m495.9 572q22.5-1.7 45-3.3c0.7-0.1 1.4-0.3 2.1-0.2 2.1 0.1 3.3-0.9 4.4-2.6 7.9-11.7 15.9-23.3 23.9-35 0.6-0.9 1.3-1.8 2.4-2.5-0.4 0.9-0.8 1.9-1.3 2.9-6.1 12.7-12.1 25.4-18.3 38.1-1 2-1.1 3.6-0.1 5.7 6.3 12.9 12.5 25.8 18.7 38.7 0.4 0.9 0.8 1.8 0.9 3-0.6-0.8-1.2-1.6-1.8-2.4-8.1-11.8-16.2-23.6-24.2-35.5-1.3-1.9-2.6-2.7-4.9-2.9-14.4-0.9-28.8-2.1-43.2-3.2-1.2-0.1-2.4-0.3-3.6-0.5q0-0.1 0-0.3z" />
        <path
            d="m495.8 668.2c4.3-0.4 8.6-0.8 13-1.1 11.5-0.9 23.1-1.8 34.6-2.5 1.9-0.2 2.9-1.1 3.9-2.5 8.1-11.9 16.3-23.8 24.4-35.7 0.7-0.9 1.3-1.8 2.3-2.5q-0.6 1.4-1.3 2.8c-6.1 12.8-12.1 25.5-18.4 38.2-1.1 2.4-1.2 4.3 0 6.8 6.1 12.5 12.1 25.1 18.1 37.6 0.5 1 0.9 1.9 0.8 3.2q-0.9-1.4-1.9-2.7c-8-11.7-16-23.3-23.9-35-1.1-1.7-2.3-2.5-4.4-2.6-15.7-1.2-31.4-2.4-47.1-3.6q-0.1-0.2-0.1-0.4z" />
        <path
            d="m740.5 624q-6.7 14-13.4 28c-2.2 4.6-4.4 9.4-6.7 14-0.9 1.7-0.8 3.1 0 4.8 6.2 12.8 12.3 25.6 18.5 38.5 0.5 0.9 0.8 1.9 0.8 3.1q-0.9-1.3-1.8-2.6c-8-11.7-16-23.3-23.9-35-1.2-1.6-2.3-2.5-4.4-2.6-15-1.1-30-2.3-45-3.5-0.8 0-1.6-0.1-2.4-0.5 4.2-0.3 8.3-0.7 12.4-1 11.7-0.9 23.3-1.8 35-2.6 1.9-0.2 3.1-0.9 4.2-2.4 8.1-12 16.3-23.9 24.4-35.8q1-1.4 1.9-2.7 0.2 0.1 0.4 0.3z" />
        <path
            d="m906.2 712.4q-1.8-2.6-3.6-5.2c-7.4-10.8-14.8-21.5-22-32.3-1.2-1.7-2.5-2.6-4.6-2.7-15.7-1.2-31.4-2.4-47.2-4 5-0.4 9.9-0.8 14.9-1.2 11.1-0.9 22.1-1.7 33.1-2.5 1.9-0.1 2.7-1.2 3.5-2.5q12-17.5 24-34.9c0.7-1.2 1.5-2.3 2.7-3.2q-0.5 1.3-1.2 2.6c-6.2 13.1-12.5 26.3-18.8 39.3-1 1.9-0.9 3.3 0 5.1 6.1 12.7 12.2 25.5 18.3 38.2 0.5 1 0.9 2 1.4 3q-0.3 0.2-0.5 0.3z" />
        <path
            d="m740.2 720.7c-0.5 1-0.9 2-1.4 3-6.1 12.7-12.2 25.4-18.3 38.1-0.9 1.9-1 3.3-0.1 5.1 6.4 13 12.5 26 18.8 39 0.4 1 0.8 1.9 0.9 3.1-0.6-0.9-1.2-1.6-1.8-2.5-8.1-11.8-16.2-23.6-24.2-35.5-1.3-1.8-2.6-2.7-4.9-2.9-14.4-0.9-28.8-2.1-43.2-3.2q-1.8-0.1-3.6-0.7 9.4-0.7 18.9-1.5c9.4-0.7 18.8-1.5 28.2-2.1 2.1-0.1 3.3-0.9 4.4-2.6 7.9-11.6 15.8-23.2 23.8-34.7q1-1.5 2-3 0.3 0.2 0.5 0.4z" />
        <path
            d="m411.5 327.8c0.5-1 0.9-2 1.4-3 6.1-12.7 12.2-25.5 18.3-38.1 0.9-1.9 0.9-3.3 0-5.1-6.3-13-12.5-26-18.7-39-0.4-1-0.9-1.9-1-3.1 0.6 0.7 1.1 1.4 1.6 2.1 8.2 11.9 16.4 23.8 24.4 35.8 1.3 1.9 2.8 2.8 5.2 3 15.2 1 30.4 2.3 45.6 3.5 0.3 0 0.7 0.1 1.1 0.4q-12.7 1-25.3 2c-7.4 0.6-14.8 1.2-22.2 1.7-1.9 0.1-3 0.8-4 2.3-7.9 11.7-16 23.4-24 35.2q-1 1.4-1.9 2.7-0.2-0.2-0.5-0.4z" />
        <path
            d="m245 712.1c0.5-1 0.9-2.1 1.4-3 6.1-12.8 12.2-25.5 18.4-38.2 0.8-1.9 0.8-3.3-0.1-5.1-6.3-13-12.5-26-18.7-39-0.4-0.9-0.9-1.8-0.9-3.1q0.9 1.2 1.7 2.5c8.1 11.8 16.2 23.6 24.2 35.5 1.4 1.9 2.8 2.8 5.2 2.9 15.1 1.1 30.2 2.3 45.3 3.5 0.5 0.1 0.9 0.2 1.4 0.5q-12.7 0.9-25.4 1.9c-7.4 0.6-14.8 1.2-22.2 1.7-1.8 0.1-2.9 0.9-3.9 2.3-8 11.8-16 23.5-24 35.3q-1 1.3-2 2.7-0.2-0.2-0.4-0.4z" />
        <path
            d="m655.9 284.3q-16.7 1.3-33.4 2.6c-4.5 0.3-9.1 0.8-13.6 1-2.2 0.1-3.5 0.9-4.7 2.7-7.9 11.7-15.9 23.3-23.9 35-0.6 0.9-1.2 1.7-2.3 2.4 0.5-1 0.9-2 1.3-3 6.1-12.7 12.2-25.5 18.4-38.2 0.9-1.9 0.9-3.4 0-5.4-6.3-12.9-12.5-25.9-18.7-38.9-0.5-0.9-0.9-1.9-1-3 0.7 0.8 1.3 1.7 1.9 2.5 8 11.7 16 23.3 23.9 35 1.5 2.2 3.1 3.2 5.8 3.4 14.9 1 29.8 2.3 44.7 3.5 0.5 0 1.1 0.1 1.7 0.2q0 0.1-0.1 0.2z" />
        <path
            d="m577.7 232.4q3.1-6.5 6.1-12.9c4.7-9.6 9.2-19.3 13.9-28.8 1-2 0.9-3.5 0-5.4-6.2-12.7-12.3-25.4-18.4-38.1-0.4-1-0.8-2-0.8-3.2q1 1.4 2 2.8c7.9 11.6 15.8 23.1 23.7 34.7 1.2 1.8 2.5 2.6 4.6 2.8 12 0.8 23.9 1.8 35.9 2.7 3.7 0.3 7.5 0.5 11.2 1.2-4.1 0.3-8.2 0.7-12.3 1-11.8 0.9-23.5 1.8-35.3 2.6-1.8 0.1-2.9 1-3.9 2.4-8.1 11.9-16.2 23.8-24.4 35.7q-0.9 1.4-1.9 2.7-0.2-0.1-0.4-0.2z" />
        <path
            d="m245 520c0.5-1 0.9-2 1.4-3 5.9-12.3 11.7-24.7 17.8-37 1.4-2.8 1.3-4.9-0.1-7.6-6.2-12.6-12.1-25.3-18.2-37.9-0.4-0.9-0.8-1.8-0.9-2.9 0.7 0.9 1.3 1.7 1.9 2.6 8.1 11.8 16.3 23.6 24.3 35.5 1.2 1.9 2.6 2.6 4.9 2.8 15.2 1.1 30.4 2.3 45.6 3.5 0.4 0.1 0.8 0.1 1.2 0.4q-8.6 0.7-17.1 1.4c-10 0.8-20 1.6-30.1 2.2-2.1 0.2-3.4 1.1-4.6 2.8-7.8 11.6-15.8 23.2-23.7 34.8q-0.9 1.3-1.9 2.7-0.2-0.2-0.5-0.3z" />
        <path
            d="m245.1 239.5c0.7 1 1.5 2.1 2.2 3.2 7.9 11.5 15.9 23.1 23.7 34.7 1.4 2 2.8 2.8 5.2 3 15.1 1 30.2 2.3 45.2 3.5 0.5 0 1 0.1 1.5 0.4q-12.7 1-25.4 2c-7.3 0.5-14.5 1.2-21.8 1.6-2.1 0.1-3.3 1-4.4 2.6-8 11.7-16 23.3-23.9 35-0.7 0.9-1.3 1.8-2.4 2.5 0.4-1 0.8-2 1.3-2.9 6.1-12.8 12.2-25.7 18.4-38.5 0.9-1.8 0.9-3.2 0-5.1-6.3-12.9-12.5-25.9-18.7-39q-0.7-1.3-1.3-2.7 0.2-0.2 0.4-0.3z" />
        <path
            d="m573.1 520.2q-4.5-6.5-8.9-13c-5.6-8.2-11.3-16.4-16.8-24.7-1.1-1.6-2.3-2.3-4.2-2.4-14.9-1.1-29.8-2.3-44.7-3.5-0.8 0-1.6-0.1-2.4-0.5 4.6-0.4 9.3-0.8 13.9-1.2 11.2-0.9 22.5-1.7 33.7-2.5 1.8-0.1 2.7-1.1 3.6-2.4q12-17.6 24-35.2c0.8-1.1 1.5-2.1 2.7-3.1-0.5 1-0.8 1.9-1.2 2.8-6.3 13-12.5 26.1-18.8 39-0.9 1.9-0.9 3.5 0 5.4 6.2 12.7 12.3 25.4 18.3 38.2 0.5 0.9 0.9 1.9 1.3 2.9q-0.2 0.1-0.5 0.2z" />
        <path
            d="m823.7 192q-6.9 14.3-13.7 28.6c-2 4.1-3.8 8.3-6 12.3-1.2 2.2-1.2 4-0.1 6.2 6.3 12.7 12.3 25.4 18.4 38.2 0.5 0.9 0.9 1.9 0.9 3.1-0.6-0.9-1.3-1.7-1.9-2.6-8-11.8-16.1-23.5-24-35.3-1.2-1.7-2.5-2.5-4.7-2.7-15.1-1.1-30.1-2.3-45.2-3.5-0.5 0-1-0.1-1.6-0.4 5.2-0.4 10.4-0.8 15.6-1.2 10.5-0.9 21-1.7 31.5-2.4 2-0.2 3.1-0.9 4.2-2.5 8-11.8 16.1-23.6 24.2-35.4q1-1.4 1.9-2.7 0.3 0.1 0.5 0.3z" />
        <path
            d="m490.1 856.7q-3.9-5.6-7.8-11.3c-6-8.8-12.2-17.7-18.2-26.6-1.1-1.7-2.3-2.4-4.4-2.6-15-1.1-29.9-2.3-44.9-3.5-0.7 0-1.4-0.1-2.1-0.4q11.9-1 23.7-1.9c7.9-0.6 15.8-1.3 23.7-1.8 1.8-0.1 2.9-0.8 3.9-2.3 8-11.8 16.2-23.6 24.2-35.5 0.7-0.9 1.3-1.8 2.4-2.5q-0.6 1.4-1.2 2.7c-6.2 12.9-12.3 25.9-18.6 38.7-0.9 1.9-1 3.5-0.1 5.4 6.3 12.8 12.4 25.6 18.5 38.4q0.7 1.5 1.4 3-0.3 0.1-0.5 0.2z" />
        <path
            d="m827.6 664.4q3.1-6.6 6.2-13.2c4.6-9.4 9-18.8 13.7-28.2 0.9-2 0.8-3.5-0.1-5.4-6.2-12.8-12.3-25.6-18.5-38.4-0.4-1-0.9-2-0.9-3.2 0.6 0.8 1.3 1.7 1.9 2.6 8 11.7 16 23.4 24 35.2 1.2 1.7 2.4 2.6 4.6 2.7 15.6 1.2 31.2 2.4 46.8 4-4.9 0.4-9.8 0.8-14.7 1.2-11 0.8-21.9 1.7-32.9 2.4-1.8 0.2-2.6 1.1-3.5 2.4q-12.1 17.7-24.3 35.5-0.9 1.3-1.9 2.7-0.2-0.2-0.4-0.3z" />
        <path
            d="m738.9 812.6q-11.6 0.9-23.1 1.8c-8.2 0.7-16.4 1.4-24.6 1.9-1.9 0.1-2.7 1.1-3.5 2.4q-12.1 17.6-24.1 35.2c-0.7 1-1.4 2-2.5 2.7 0.4-0.9 0.8-1.9 1.3-2.9 6.2-12.9 12.3-25.8 18.6-38.7 0.9-1.8 0.9-3.3 0-5.1-6.2-12.8-12.4-25.7-18.5-38.5-0.5-1-0.9-2-1-3.3 0.6 0.8 1.2 1.6 1.8 2.5 8.1 11.8 16.2 23.6 24.2 35.5 1.1 1.6 2.3 2.4 4.4 2.6 14.9 1 29.8 2.2 44.7 3.4q1.1 0.1 2.3 0.2 0 0.2 0 0.3z" />
        <path
            d="m161.5 856.5q3.2-6.6 6.3-13.1c4.5-9.5 9-18.9 13.6-28.3 1-1.9 0.9-3.5 0-5.4-6.2-12.8-12.4-25.6-18.5-38.4-0.5-1-0.9-2-0.9-3.2q1 1.4 2 2.8c8 11.7 16 23.3 23.9 35 1.2 1.8 2.4 2.6 4.6 2.8 15.6 1.1 31.2 2.3 46.8 3.9-4.6 0.4-9.2 0.8-13.9 1.1-11 0.9-22 1.8-33.1 2.5-1.9 0.1-3.1 0.8-4.2 2.4-7.9 11.8-16 23.5-24 35.3q-1 1.4-2.1 2.9-0.2-0.1-0.5-0.3z" />
        <path
            d="m745.9 620.1q20.4-1.5 40.7-3.1c2-0.2 4.1-0.5 6.1-0.5 2.2 0.1 3.4-1 4.6-2.7 8-11.8 16-23.5 24-35.2 0.7-0.9 1.3-1.8 2.4-2.5-0.5 1-0.9 2-1.4 3-6.2 12.9-12.3 25.8-18.6 38.7-0.9 1.8-0.9 3.2 0 5.1 6.2 12.7 12.3 25.6 18.5 38.4 0.5 1 0.9 2 1 3.3-0.6-0.8-1.2-1.6-1.8-2.4-8-11.7-16.1-23.4-24-35.2-1.3-2-2.8-2.8-5.1-3-15-1-30-2.3-45-3.4q-0.7-0.1-1.5-0.2 0.1-0.1 0.1-0.3z" />
        <path
            d="m246.2 812.3q12.3-1 24.6-1.9c7.6-0.6 15.2-1.3 22.8-1.8 1.8-0.1 2.9-0.8 3.9-2.3 8.1-11.9 16.2-23.8 24.4-35.7 0.6-0.8 1.2-1.7 2.2-2.3q-0.6 1.5-1.3 3c-6.1 12.6-12.1 25.3-18.2 37.8-1.2 2.3-1.3 4.1-0.1 6.5 6.2 12.6 12.2 25.3 18.2 37.9 0.5 1 0.9 2 1 3.3-0.6-0.9-1.3-1.7-1.8-2.5-8.1-11.8-16.1-23.5-24.1-35.3-1.2-1.8-2.5-2.7-4.8-2.8-15-1.1-30-2.3-45-3.5q-0.9-0.1-1.8-0.2 0-0.1 0-0.2z" />
        <path
            d="m406 812.6c-5 0.4-9.9 0.8-14.9 1.2-10.9 0.9-21.8 1.7-32.8 2.5-1.8 0.1-2.7 0.9-3.6 2.2q-12.2 17.9-24.4 35.7c-0.6 0.9-1.2 1.8-2.3 2.4q0.7-1.5 1.4-3c6.1-12.7 12.2-25.4 18.4-38.1 1-2.1 1.1-3.8 0-6-6.2-12.6-12.2-25.4-18.3-38.1-0.5-1-1-2-1-3.3 0.6 0.8 1.2 1.7 1.8 2.5 8.1 11.8 16.2 23.6 24.2 35.5 1.1 1.6 2.3 2.4 4.4 2.6 15 1 30 2.3 44.9 3.4q1.1 0.1 2.2 0.2 0 0.1 0 0.3z" />
        <path
            d="m495 575.9q2 2.9 4 5.8c7.3 10.7 14.7 21.4 22 32.2 1.2 1.8 2.5 2.5 4.6 2.7 14.9 1 29.8 2.2 44.7 3.4 0.7 0.1 1.4 0.1 2.1 0.4-4.7 0.4-9.4 0.9-14.1 1.2-10.8 0.9-21.6 1.8-32.5 2.5-2.2 0.1-3.6 0.8-4.9 2.7-7.9 11.8-16 23.5-24 35.3-0.6 0.9-1.3 1.7-2.4 2.4q0.7-1.5 1.4-2.9c6.2-12.9 12.3-25.9 18.6-38.7 0.9-1.9 0.9-3.3 0-5.1-6.2-12.8-12.3-25.7-18.5-38.5q-0.7-1.5-1.4-3 0.2-0.2 0.4-0.4z" />
        <path
            d="m412.9 620.1q20.3-1.5 40.7-3.1c2.1-0.2 4.2-0.5 6.4-0.5 2 0 3-0.9 4.1-2.4 8-11.9 16.1-23.7 24.2-35.5 0.6-0.9 1.3-1.8 2.3-2.5q-0.6 1.5-1.3 2.9c-6.1 12.9-12.2 25.7-18.5 38.5-0.9 2-1 3.6 0 5.6 6.2 12.7 12.3 25.4 18.4 38.2 0.4 1 0.9 2 1 3.3-0.6-0.8-1.2-1.6-1.8-2.4-8-11.7-16.1-23.4-24-35.2-1.3-2-2.8-2.8-5.1-3-15-1-30-2.3-45-3.4q-0.7-0.1-1.5-0.2 0-0.1 0.1-0.3z" />
        <path
            d="m161.5 472.3q3.2-6.6 6.3-13.2c4.5-9.4 9-18.9 13.6-28.2 1-2 0.9-3.5 0-5.4-6.2-12.8-12.3-25.6-18.5-38.5-0.5-0.9-0.9-1.9-0.9-3.1 0.6 0.8 1.2 1.7 1.8 2.5 8.1 11.8 16.1 23.5 24.1 35.3 1.2 1.7 2.4 2.6 4.6 2.7 15.6 1.1 31.2 2.4 46.8 3.9-4.9 0.4-9.9 0.9-14.8 1.3-10.9 0.8-21.8 1.7-32.8 2.4-1.8 0.1-2.7 1.1-3.5 2.4q-12.1 17.6-24.1 35.2-1 1.5-2.1 3-0.2-0.2-0.5-0.3z" />
        <path
            d="m328 664.5q0.7-1.5 1.4-3c6.1-12.7 12.1-25.5 18.3-38.1 1.2-2.3 1.1-4 0-6.2-6.2-12.6-12.2-25.3-18.2-37.9-0.5-1-1-2-1-3.3q0.9 1.2 1.8 2.4c8.1 11.9 16.2 23.7 24.2 35.5 1.1 1.7 2.3 2.5 4.4 2.6 14.9 1.1 29.9 2.3 44.9 3.5 0.7 0.1 1.4 0.1 2.1 0.4-4.7 0.4-9.4 0.9-14.1 1.2-11 0.9-21.9 1.8-32.8 2.5-2.1 0.1-3.3 0.8-4.4 2.5-8.1 11.9-16.2 23.7-24.3 35.5q-0.9 1.3-1.8 2.6-0.2-0.1-0.5-0.2z" />
        <path
            d="m405.8 428.4q-15.8 1.2-31.6 2.4c-5.4 0.5-10.7 1-16.1 1.2-1.9 0.1-2.6 1.2-3.5 2.5q-12 17.6-24.1 35.2c-0.7 1-1.3 1.9-2.5 2.7q0.7-1.5 1.4-3c6.2-12.9 12.3-25.8 18.6-38.7 0.9-1.8 0.9-3.3 0-5.1-6.2-12.8-12.4-25.6-18.5-38.4-0.5-1-0.9-2-1-3.3 0.6 0.8 1.2 1.6 1.7 2.4 8.1 11.7 16.1 23.4 24.1 35.2 1.2 1.9 2.5 2.8 4.8 2.9 14.9 1.1 29.8 2.3 44.7 3.5q1 0.1 2.1 0.1-0.1 0.2-0.1 0.4z" />
        <path
            d="m490.1 472.5q-2.1-3-4.1-6c-7.2-10.5-14.5-21.1-21.6-31.7-1.3-1.8-2.6-2.7-4.9-2.9-15-1-30-2.3-45-3.4-0.6-0.1-1.2-0.2-1.8-0.5q12.3-0.9 24.6-1.9c7.6-0.6 15.1-1.2 22.7-1.7 1.9-0.1 3-0.8 4-2.3 8.1-11.9 16.2-23.8 24.4-35.7 0.6-0.9 1.2-1.7 2.2-2.3q-0.6 1.4-1.3 2.9c-6.2 12.8-12.3 25.6-18.5 38.4-1 2.1-0.9 3.7 0 5.7 6.2 12.7 12.3 25.4 18.4 38.1q0.7 1.5 1.4 3-0.2 0.2-0.5 0.3z" />
        <path
            d="m495 383.8q1.2 1.7 2.3 3.3c7.9 11.5 15.8 23.1 23.7 34.7 1.1 1.6 2.3 2.5 4.4 2.6 15 1.1 29.9 2.3 44.9 3.5 0.7 0 1.4 0.1 2.1 0.4-4.7 0.4-9.4 0.8-14.1 1.2-10.9 0.9-21.9 1.7-32.8 2.5-2.1 0.1-3.3 0.8-4.4 2.5-8.1 11.9-16.2 23.7-24.3 35.5-0.6 0.9-1.2 1.7-2.2 2.3q0.6-1.4 1.3-2.9c6.1-12.8 12.2-25.6 18.5-38.4 1-2.1 0.9-3.7-0.1-5.7-6.2-12.7-12.2-25.4-18.3-38.1q-0.7-1.5-1.4-3 0.2-0.2 0.4-0.4z" />
        <path
            d="m239.3 620.5q-15.8 1.2-31.6 2.5c-4.8 0.3-9.7 0.9-14.6 1-2.7 0.1-4.1 1.2-5.5 3.3-7.9 11.6-15.8 23.2-23.7 34.7-0.7 0.9-1.3 1.8-2.3 2.5 0.4-1 0.8-2 1.3-2.9 6.1-12.9 12.3-25.8 18.6-38.7 0.9-1.8 0.9-3.3 0-5.1-6.2-12.8-12.4-25.6-18.5-38.5-0.5-1-0.9-2-1-3.3 0.5 0.8 1.2 1.6 1.7 2.4 8.1 11.8 16.2 23.6 24.2 35.5 1.2 1.7 2.5 2.5 4.7 2.7 14.9 1 29.8 2.2 44.6 3.4q1.1 0.1 2.2 0.2-0.1 0.1-0.1 0.3z" />
        <path
            d="m495.1 191.8q4.6 6.6 9.1 13.3c5.7 8.3 11.4 16.6 17 24.9 1 1.5 2.2 2.1 4 2.3 15 1.1 29.9 2.3 44.9 3.4 0.8 0.1 1.6 0.2 2.3 0.5q-12.1 1-24.2 1.9c-7.9 0.6-15.8 1.3-23.7 1.8-1.8 0.1-2.5 1.1-3.3 2.3q-10.4 15.2-20.8 30.5c-1.8 2.5-3.6 5.1-5.8 7.5q0.6-1.4 1.2-2.7c6.2-12.9 12.4-25.9 18.6-38.7 1-2 1-3.5 0-5.4-6.2-12.8-12.3-25.6-18.5-38.4q-0.7-1.5-1.3-3 0.2-0.1 0.5-0.2z" />
        <path
            d="m823.2 472.6q-1-1.4-1.9-2.7c-7.9-11.6-15.9-23.3-23.8-35-1.3-1.9-2.7-2.8-5.1-3q-23.3-1.6-46.5-3.9c5.1-0.4 10.3-0.8 15.4-1.2 10.5-0.8 21.1-1.7 31.6-2.4 1.9-0.1 3.1-0.8 4.2-2.4 8-11.9 16.1-23.7 24.2-35.5 0.6-0.9 1.3-1.8 2.3-2.5-0.4 0.9-0.8 1.9-1.2 2.8-6.2 13-12.4 25.9-18.6 38.7-1 2-0.9 3.5 0 5.4 6.2 12.8 12.3 25.6 18.5 38.5q0.7 1.4 1.3 2.9-0.2 0.1-0.4 0.3z" />
        <path
            d="m828 383.8c1.4 1.9 2.7 3.8 4 5.8 7.4 10.7 14.7 21.4 22 32.2 1.2 1.8 2.5 2.5 4.7 2.6 14.8 1.1 29.7 2.3 44.6 3.5 0.7 0 1.4 0.1 2.1 0.4-4.9 0.4-9.8 0.9-14.7 1.3-10.9 0.8-21.8 1.7-32.8 2.4-1.9 0.1-2.8 1.1-3.8 2.5q-12.1 17.7-24.2 35.5c-0.6 0.8-1.3 1.7-2.3 2.4q0.6-1.5 1.3-3c6.2-12.9 12.3-25.8 18.6-38.7 0.9-1.8 0.9-3.3 0-5.1-6.2-12.8-12.3-25.6-18.5-38.4q-0.7-1.5-1.4-3 0.2-0.2 0.4-0.4z" />
        <path
            d="m490.6 192q-7.7 16.1-15.3 32.2c-1.5 2.9-2.7 5.9-4.3 8.7-1.2 2.2-1.2 4-0.1 6.2 6.2 12.7 12.3 25.5 18.4 38.2 0.5 0.9 0.9 1.9 0.9 3.1-0.6-0.9-1.3-1.8-1.9-2.7-8.1-11.7-16.1-23.4-24.1-35.2-1.2-1.7-2.5-2.5-4.6-2.7-15.1-1.1-30.2-2.3-45.3-3.5-0.5 0-1-0.1-1.5-0.4 5.2-0.4 10.4-0.8 15.6-1.2 10.5-0.9 21-1.7 31.5-2.4 2-0.2 3.1-0.9 4.2-2.5 8-11.8 16.1-23.6 24.2-35.5q1-1.3 1.9-2.6 0.2 0.1 0.4 0.3z" />
        <path
            d="m324.1 191.9c-0.4 1-0.8 1.9-1.3 2.9-6.2 12.9-12.3 25.8-18.6 38.7-0.9 1.8-0.9 3.3 0 5.1 6.2 12.8 12.3 25.6 18.5 38.4 0.4 1 0.9 2 1 3.4-0.6-0.8-1.2-1.6-1.8-2.4-8-11.8-16.1-23.5-24-35.3-1.3-1.9-2.8-2.7-5.1-2.9-15-1.1-30-2.3-45-3.5-0.5 0-1-0.1-1.5-0.4 5.2-0.4 10.4-0.8 15.6-1.3 10.5-0.8 21-1.6 31.6-2.3 1.9-0.2 3-0.9 4.1-2.5 8-11.9 16.1-23.7 24.2-35.5 0.6-0.9 1.3-1.7 1.9-2.6q0.2 0.1 0.4 0.2z" />
        <path
            d="m827.6 856.6q0.6-1.4 1.3-2.9c6.2-12.9 12.3-25.8 18.6-38.7 0.9-1.8 0.9-3.3 0-5.1-6.2-12.8-12.3-25.6-18.5-38.4-0.5-1-0.9-2-1-3.4 0.6 0.8 1.2 1.6 1.8 2.4 8 11.8 16.2 23.6 24.2 35.5 1.2 1.8 2.5 2.5 4.6 2.7 14.9 1 29.8 2.3 44.7 3.4 0.7 0.1 1.4 0.1 2.1 0.5-4.7 0.4-9.4 0.8-14 1.2-10.8 0.8-21.5 1.7-32.2 2.3-2.7 0.2-4.2 1.3-5.6 3.4-7.8 11.5-15.7 23-23.5 34.4q-1.1 1.5-2.1 3-0.2-0.2-0.4-0.3z" />
        <path
            d="m579.2 812.3q12-1 24-1.9c7.8-0.6 15.6-1.3 23.4-1.8 1.8-0.1 2.9-0.8 3.9-2.3 8-11.8 16.2-23.6 24.2-35.5 0.7-0.9 1.3-1.8 2.4-2.5q-0.6 1.4-1.2 2.7c-6.1 12.8-12.2 25.7-18.5 38.4-1 2.1-1.1 3.8 0 6 6.2 12.6 12.2 25.4 18.3 38.1 0.5 1 0.9 2 1 3.3q-0.9-1.3-1.8-2.6c-8.1-11.7-16.1-23.4-24.1-35.2-1.2-1.9-2.6-2.7-4.9-2.8-14.8-1.1-29.7-2.3-44.6-3.5q-1-0.1-2.1-0.2 0-0.1 0-0.2z" />
        <path
            d="m572.3 812.6q-15.9 1.3-31.9 2.5c-4.7 0.4-9.5 1-14.2 1-2.7 0.1-4.2 1.2-5.6 3.3-7.8 11.7-15.8 23.2-23.7 34.8-0.6 0.9-1.3 1.8-2.3 2.4 0.4-0.9 0.8-1.9 1.3-2.9 6.2-12.9 12.3-25.8 18.6-38.7 0.9-1.8 0.9-3.3 0-5.1-6.2-12.8-12.3-25.6-18.5-38.4-0.5-1-0.9-2-1-3.4 0.6 0.8 1.2 1.6 1.7 2.4 8.1 11.8 16.2 23.6 24.3 35.5 1.2 1.8 2.5 2.5 4.6 2.7 14.9 1 29.8 2.3 44.7 3.4q1 0.1 2.1 0.2-0.1 0.2-0.1 0.3z" />
        <path
            d="m739 236.2c-5 0.4-9.9 0.9-14.8 1.2-11 0.9-21.9 1.7-32.9 2.5-1.8 0.1-2.7 0.9-3.6 2.3q-12.1 17.8-24.4 35.7c-0.6 0.9-1.2 1.7-2.2 2.3q0.6-1.5 1.3-3c6.1-12.7 12.2-25.4 18.4-38.1 1-2.1 1.1-3.8 0-5.9-6.2-12.7-12.2-25.5-18.3-38.2-0.5-1-0.9-2-1-3.3q0.9 1.3 1.8 2.5c8.1 11.8 16.2 23.6 24.2 35.5 1.2 1.7 2.4 2.4 4.4 2.6 14.9 1.1 29.8 2.3 44.7 3.4q1.2 0.1 2.4 0.2 0 0.2 0 0.3z" />
        <path
            d="m738.8 428.4q-15.7 1.2-31.5 2.4c-5.2 0.4-10.4 0.9-15.5 1.2-2 0.1-3.1 0.9-4.2 2.4-8 11.9-16.1 23.7-24.2 35.5-0.6 0.9-1.3 1.8-2.3 2.5 0.4-1 0.8-2 1.3-2.9 6.1-12.8 12.2-25.7 18.5-38.4 0.9-2.1 1-3.7 0-5.7-6.3-12.8-12.4-25.6-18.5-38.4-0.5-1-0.9-2-0.9-3.1 0.6 0.8 1.3 1.7 1.9 2.6 8 11.7 16.1 23.4 24 35.2 1.2 1.8 2.5 2.6 4.7 2.7 15.6 1.1 31.2 2.4 46.8 3.6q-0.1 0.2-0.1 0.4z" />
        <path
            d="m656.6 280.4q-2.1-3.1-4.3-6.3c-7.2-10.4-14.4-20.9-21.5-31.4-1.2-1.9-2.5-2.7-4.8-2.9-15-1-30-2.3-45-3.5-0.6 0-1.2-0.1-1.8-0.4q12.3-1 24.6-1.9c7.6-0.6 15.2-1.3 22.8-1.7 1.8-0.2 2.9-0.8 3.9-2.3 8.1-12 16.2-23.8 24.4-35.7 0.6-0.9 1.2-1.8 2.3-2.4q-0.7 1.5-1.4 3c-6.1 12.8-12.3 25.6-18.5 38.4-1 2-0.9 3.6 0.1 5.7 6.1 12.6 12.2 25.4 18.3 38.1q0.7 1.5 1.4 3-0.3 0.1-0.5 0.3z" />
        <path
            d="m246.4 620.1q20.3-1.5 40.7-3.1c2-0.2 4-0.5 6.1-0.5 2.2 0.1 3.4-1 4.6-2.7 7.9-11.8 16-23.5 24-35.2 0.6-0.9 1.3-1.8 2.3-2.5q-0.6 1.5-1.3 3c-6.2 12.9-12.3 25.8-18.6 38.7-0.9 1.8-0.9 3.2 0 5.1 6.2 12.7 12.3 25.6 18.5 38.4 0.4 1 0.9 2 1 3.3-0.6-0.8-1.2-1.6-1.8-2.4-8-11.7-16.1-23.4-24-35.2-1.3-2-2.8-2.8-5.2-3-14.9-1-29.9-2.3-44.9-3.4q-0.8-0.1-1.5-0.2 0-0.1 0.1-0.3z" />
        <path
            d="m656.6 664.6q-2.2-3.1-4.3-6.2c-7.2-10.6-14.5-21.1-21.6-31.7-1.2-1.7-2.4-2.5-4.4-2.6-15.1-1.1-30.2-2.3-45.3-3.5-0.6-0.1-1.2-0.1-1.8-0.4q12-1 24-1.9c7.8-0.6 15.6-1.3 23.4-1.8 1.8-0.1 2.9-0.8 3.9-2.3 7.9-11.7 15.9-23.3 23.9-35 0.7-1 1.5-2.1 2.7-3-0.4 0.9-0.8 1.8-1.2 2.7-6.1 12.8-12.2 25.6-18.5 38.4-1 2.1-1.1 3.8 0 5.9 6.2 12.7 12.2 25.5 18.3 38.2q0.7 1.5 1.4 3-0.3 0.1-0.5 0.2z" />
        <path
            d="m661.5 576q2.1 2.9 4.2 5.9c7.3 10.7 14.6 21.3 21.8 32 1.1 1.6 2.2 2.5 4.3 2.6 15 1.1 30 2.3 45 3.5 0.7 0.1 1.4 0.1 2.1 0.4-4.7 0.4-9.4 0.9-14.1 1.2-10.9 0.9-21.8 1.8-32.8 2.5-2 0.1-3.3 0.8-4.4 2.5-8 11.9-16.1 23.7-24.2 35.5-0.6 0.9-1.3 1.7-2.4 2.4q0.7-1.5 1.4-2.9c6.2-12.9 12.3-25.9 18.6-38.7 0.9-1.9 0.9-3.3 0-5.1-6.2-12.8-12.3-25.7-18.5-38.5q-0.7-1.5-1.4-3 0.2-0.2 0.4-0.3z" />
        <path
            d="m823.6 768.4q-7.6 16.1-15.3 32.1c-1.5 3.1-2.8 6.1-4.4 9.1-1.1 1.9-1.1 3.6-0.1 5.6 6.3 12.8 12.4 25.6 18.5 38.5 0.5 0.9 0.9 1.9 0.9 3.1-0.6-0.9-1.3-1.8-1.9-2.7-8-11.7-16.1-23.4-24.1-35.2-1.1-1.8-2.4-2.5-4.6-2.7-15.1-1.1-30.2-2.3-45.3-3.5-0.5-0.1-1-0.1-1.5-0.4q7.8-0.7 15.6-1.3c10.5-0.8 21-1.7 31.6-2.4 1.9-0.1 3-0.8 4.1-2.4 8-11.9 16.1-23.7 24.2-35.5q1-1.3 1.9-2.7 0.3 0.2 0.4 0.4z" />
        <path
            d="m239.4 236.2c-4.7 0.4-9.4 0.8-14.1 1.2-11.1 0.8-22.1 1.7-33.1 2.5-1.9 0.1-3 0.7-4 2.2-8.1 12-16.2 23.9-24.4 35.8-0.6 0.8-1.2 1.7-2.3 2.3q0.7-1.5 1.4-2.9c6.1-12.8 12.1-25.5 18.3-38.2 1.1-2.2 1.1-4 0-6.2-6.2-12.6-12.2-25.2-18.2-37.9-0.5-1-1-2-1-3.3 0.6 0.9 1.2 1.7 1.8 2.5 8 11.8 16.2 23.6 24.2 35.5 1.1 1.6 2.3 2.4 4.4 2.6 15 1.1 29.9 2.3 44.9 3.5q1.1 0 2.1 0.1 0 0.2 0 0.3z" />
        <path
            d="m328.1 280.1q7.7-16.2 15.5-32.4c1.4-3 2.8-6.1 4.4-9 0.9-1.8 0.9-3.3 0-5.2-6.3-12.8-12.4-25.7-18.6-38.7-0.5-0.9-0.9-1.9-0.9-3.1q1 1.5 2.1 2.9c7.9 11.7 15.9 23.3 23.8 35 1.2 1.8 2.5 2.5 4.7 2.7 15.6 1.1 31.2 2.4 46.8 3.9-4.7 0.4-9.4 0.8-14 1.2-11.1 0.8-22.1 1.7-33.1 2.5-2 0.1-3.1 0.8-4.2 2.4-8 11.8-16 23.5-24 35.2q-1.1 1.5-2.1 3-0.2-0.2-0.4-0.4z" />
        <path
            d="m827.6 280.1q1.5-3.1 3-6.3c5.5-11.6 11.1-23.2 16.7-34.8 1.1-2.2 1-3.8 0-6-6.2-12.6-12.3-25.4-18.4-38.1-0.4-1-0.9-1.9-0.9-3.2 0.6 0.9 1.3 1.7 1.9 2.6 8 11.8 16.1 23.5 24 35.3 1.2 1.7 2.5 2.5 4.6 2.7 15.6 1.1 31.2 2.4 46.8 3.9-4.6 0.4-9.2 0.8-13.8 1.2-11.1 0.8-22.1 1.7-33.2 2.5-1.9 0.1-3.1 0.8-4.1 2.4-8 11.7-16.1 23.4-24.1 35.2q-1 1.5-2.1 3-0.2-0.2-0.4-0.4z" />
        <path
            d="m246.2 428q7.9-0.6 15.7-1.2c10.4-0.8 20.9-1.7 31.3-2.4 2-0.1 3.3-0.8 4.4-2.5 8.1-11.9 16.2-23.7 24.3-35.5 0.6-0.9 1.2-1.7 2.2-2.4q-0.6 1.5-1.3 3c-6.2 12.9-12.4 25.8-18.6 38.7-0.9 1.8-0.9 3.3 0 5.1 6.2 12.8 12.3 25.6 18.5 38.4 0.5 1 0.9 2 1 3.3-0.6-0.8-1.2-1.6-1.8-2.4-8-11.7-16-23.3-23.9-35-1.3-2.1-2.8-3-5.3-3.2-14.9-1-29.8-2.3-44.7-3.4q-0.9-0.1-1.8-0.2 0-0.1 0-0.3z" />
        <path
            d="m579.3 428q12.2-0.9 24.3-1.9c7.6-0.6 15.2-1.2 22.8-1.7 2-0.1 3.1-0.8 4.2-2.4 8-11.9 16.1-23.7 24.2-35.5 0.6-0.9 1.3-1.8 2.3-2.5-0.4 0.9-0.8 1.9-1.3 2.9-6.1 12.9-12.3 25.8-18.6 38.7-0.9 1.8-0.9 3.3 0 5.1 6.2 12.8 12.3 25.7 18.5 38.5 0.5 1 0.9 2 1 3.3-0.6-0.8-1.2-1.6-1.8-2.4-8-11.8-16.1-23.5-24.1-35.3-1.2-1.8-2.5-2.7-4.8-2.9-14.9-1-29.8-2.2-44.7-3.4q-1-0.1-2-0.2 0-0.1 0-0.3z" />
        <path
            d="m324.2 672.1c-0.5 0.9-0.9 1.9-1.3 2.9-6.2 12.9-12.4 25.8-18.7 38.7-0.9 1.9-0.9 3.5 0.1 5.4 6.1 12.6 12.1 25.2 18.2 37.9 0.4 0.9 0.8 1.8 0.7 3-0.6-0.8-1.2-1.6-1.8-2.5-7.7-11.3-15.5-22.6-23.2-34-1.5-2.3-3.3-3.3-6.1-3.5-14.4-0.9-28.8-2.1-43.1-3.2-0.4 0-0.7-0.1-1.1-0.6 0.6-0.1 1.3-0.3 1.9-0.3 14.4-1.1 28.8-2.2 43.2-3.2 2.1-0.2 3.5-0.9 4.7-2.7 8-11.9 16.1-23.7 24.2-35.5 0.6-0.9 1.3-1.7 1.9-2.6q0.2 0.1 0.4 0.2z" />
        <path
            d="m489.6 567.8q-0.9-1.3-1.9-2.7c-7.7-11.3-15.5-22.6-23.2-34-1.4-2.2-3.1-3-5.6-3.2-14.6-1-29.2-2.1-43.8-3.2-0.2 0-0.4-0.1-1-0.3 0.8-0.3 1.2-0.6 1.7-0.6q17-1.3 34-2.6c3.3-0.2 6.7-0.6 10-0.7 2 0 3.2-0.8 4.2-2.4 8.1-11.9 16.3-23.8 24.4-35.7 0.6-0.9 1.3-1.8 2.3-2.4-0.5 0.9-0.9 1.9-1.3 2.9-6.2 12.8-12.3 25.7-18.5 38.4-1.1 2.2-1 3.9 0 6 6.1 12.5 12.1 25 18.1 37.6 0.4 0.9 0.8 1.8 1.2 2.7q-0.3 0.1-0.6 0.2z" />
        <path
            d="m570.8 524.5q-1.5 0.2-2.9 0.3c-14.2 1.1-28.3 2.2-42.5 3.2-2.1 0.1-3.3 1-4.4 2.7-7.8 11.5-15.7 23-23.6 34.5-0.6 0.9-1.3 1.8-2.4 2.4 0.4-0.8 0.7-1.7 1.1-2.5 6-12.6 12-25.3 18.2-37.9 1.1-2.2 1-3.8 0-5.9-6.2-12.7-12.3-25.5-18.4-38.2-0.5-1-0.9-2-1-3.3 0.6 0.9 1.2 1.7 1.8 2.5 8 11.7 16 23.3 23.9 35 1.5 2.2 3 3.1 5.6 3.3 14.3 1 28.6 2.1 42.9 3.2 0.6 0 1.1 0.2 1.7 0.3q0 0.2 0 0.4z" />
        <path
            d="m657.2 480.1q-4.5 9.5-9.1 18.9c-3.5 7.3-6.9 14.7-10.5 22-1.2 2.3-1.3 4.1-0.1 6.5 6.1 12.3 12 24.8 18 37.3 0.4 0.9 0.8 1.8 0.8 3-0.6-0.7-1.2-1.4-1.7-2.1-7.8-11.5-15.7-22.9-23.5-34.5-1.4-2.1-3-3.1-5.6-3.3-14.5-1-29-2.1-43.4-3.2-0.4 0-0.8-0.1-1.2-0.6 0.7-0.1 1.5-0.3 2.2-0.3 14.4-1.1 28.7-2.3 43.1-3.3 2.1-0.1 3.3-0.9 4.5-2.6 7.9-11.7 16-23.5 24-35.2q1-1.5 2.1-3 0.2 0.2 0.4 0.4z" />
        <path
            d="m737.3 524.6q-8.5 0.7-17 1.3c-9.3 0.7-18.7 1.5-28 2-2.2 0.2-3.7 1-4.9 2.9-7.8 11.6-15.7 23-23.6 34.5-0.6 0.9-1.2 1.7-2.3 2.3 0.4-0.9 0.8-1.8 1.2-2.7 6-12.5 11.9-25.1 18.1-37.6 1.1-2.3 1-4-0.1-6.2-6.2-12.7-12.3-25.5-18.4-38.2-0.4-1-0.8-2-0.9-3.1 0.6 0.9 1.3 1.8 1.9 2.7 8 11.5 15.9 23.1 23.7 34.7 1.6 2.3 3.2 3.2 5.9 3.4 14.3 1 28.6 2.1 42.9 3.2 0.5 0 1 0.2 1.4 0.2q0.1 0.3 0.1 0.6z" />
        <path
            d="m747.5 524c3-0.3 6-0.6 9-0.8 11.9-0.9 23.7-1.8 35.6-2.6 2.4-0.2 4-1 5.4-3.1 7.8-11.7 15.9-23.3 23.8-35 0.7-0.9 1.3-1.8 2.4-2.5-0.4 0.9-0.8 1.8-1.3 2.8-6.1 12.9-12.3 25.8-18.6 38.7-1 2-0.9 3.6 0.1 5.6 6.1 12.6 12.1 25.3 18.2 37.9 0.4 0.9 0.7 1.8 0.6 2.9q-0.9-1.3-1.9-2.6c-7.7-11.3-15.5-22.6-23.1-34-1.6-2.3-3.3-3.2-5.9-3.4-14.5-1-29-2.1-43.5-3.2-0.3 0-0.6-0.1-0.9-0.2q0.1-0.3 0.1-0.5z" />
        <path
            d="m903.7 524.6q-12.8 1-25.5 2c-6.5 0.5-13 1-19.5 1.4-2.1 0.1-3.5 0.9-4.7 2.7-7.8 11.5-15.7 23-23.5 34.5-0.7 0.9-1.3 1.8-2.5 2.4 0.4-0.8 0.7-1.7 1.1-2.5 6.1-12.6 12.1-25.3 18.2-37.9 1.1-2.1 1-3.8 0-5.9-6.2-12.7-12.3-25.5-18.4-38.2-0.4-1-0.9-2-1-3.3 0.6 0.9 1.3 1.7 1.8 2.5 8 11.7 16 23.3 23.9 35 1.5 2.2 3 3.1 5.6 3.3 14.3 0.9 28.6 2.1 42.9 3.2 0.6 0 1.1 0.2 1.7 0.3q-0.1 0.2-0.1 0.5z" />
        <path
            d="m162 479.9q4.7 6.7 9.3 13.5c5.6 8.2 11.2 16.3 16.7 24.5 1.2 1.7 2.5 2.5 4.7 2.7 14.4 1 28.8 2.1 43.1 3.2 0.7 0 1.3 0.2 1.9 0.7-2.6 0.3-5.3 0.5-8 0.7-12.1 0.9-24.1 1.9-36.2 2.7-2.6 0.2-4.4 1-5.9 3.3-7.7 11.4-15.5 22.7-23.2 34q-1 1.4-1.9 2.7-0.3-0.1-0.6-0.2c0.4-0.9 0.8-1.8 1.2-2.6 6-12.7 12.1-25.3 18.2-37.9 1-2.1 1.1-3.7 0.1-5.7-6.3-12.8-12.4-25.6-18.5-38.5q-0.7-1.5-1.4-2.9 0.3-0.1 0.5-0.2z" />
        <path
            d="m328.4 479.8q1 1.3 1.9 2.7c8 11.6 16 23.3 23.9 35 1.4 2 2.9 2.9 5.4 3.1 14.3 1 28.6 2.1 42.9 3.2 0.6 0 1.2 0.1 1.7 0.7-2.9 0.3-5.8 0.6-8.8 0.8-11.9 0.9-23.9 1.8-35.8 2.6-2.5 0.2-4.1 1.1-5.4 3.2-7.7 11.5-15.6 22.8-23.4 34.2-0.6 0.9-1.2 1.7-2.3 2.3 0.4-0.9 0.7-1.8 1.2-2.7 6-12.5 11.9-25.1 18.1-37.6 1-2.1 1.1-3.8 0-6-6.2-12.7-12.3-25.4-18.4-38.1q-0.7-1.5-1.4-3.1 0.2-0.1 0.4-0.3z" />
        <path
            d="m237.7 716.7c-2.6 0.2-5.3 0.5-8 0.7-11.9 0.9-23.9 1.8-35.9 2.6-2.8 0.2-4.7 1-6.4 3.6-7.5 11.3-15.3 22.5-23 33.7q-0.9 1.4-1.9 2.7-0.3-0.1-0.5-0.2c0.3-0.9 0.7-1.8 1.1-2.6 6-12.6 12-25.1 18.1-37.6 1.1-2.3 1.2-4 0-6.3-6.2-12.6-12.2-25.4-18.3-38.1-0.5-1-0.9-2-1-3.2 0.6 0.8 1.2 1.6 1.8 2.5 8 11.6 16 23.3 23.9 35 1.5 2.1 3.1 3.1 5.7 3.2 14.3 1 28.5 2.1 42.8 3.2 0.6 0 1.1 0.2 1.7 0.3q0 0.3-0.1 0.5z" />
        <path
            d="m570.7 716.7q-13.2 1-26.4 2c-6.3 0.5-12.6 1-18.9 1.4-2 0.1-3.2 1-4.4 2.6-7.8 11.6-15.7 23.1-23.5 34.5-0.7 1-1.3 1.8-2.5 2.5 0.4-0.9 0.8-1.8 1.2-2.7 6-12.5 12-25.1 18.1-37.6 1-2.2 1.1-3.8 0-6-6.2-12.7-12.3-25.4-18.4-38.1-0.4-1-0.9-2-1-3.3 0.6 0.8 1.2 1.6 1.8 2.4 8.1 11.8 16.2 23.6 24.2 35.5 1.3 1.9 2.7 2.6 5 2.8 14.4 1 28.7 2.1 43.1 3.2 0.6 0 1.2 0.2 1.7 0.3q0 0.3 0 0.5z" />
        <path
            d="m404.2 716.7q-13 1-26.1 2c-6.4 0.5-12.8 1-19.1 1.4-2.1 0.1-3.3 0.9-4.5 2.6-7.8 11.6-15.8 23.2-23.7 34.8-0.6 0.8-1.2 1.7-2.3 2.2 0.4-0.9 0.7-1.8 1.2-2.7 6-12.5 11.9-25.1 18.1-37.6 1-2.1 1.1-3.8 0-5.9-6.2-12.7-12.3-25.5-18.4-38.2-0.4-1-0.9-2-1-3.3 0.6 0.8 1.2 1.5 1.8 2.4 8 11.7 16.1 23.4 24 35.2 1.4 2.1 2.9 3 5.4 3.1 14.4 1 28.8 2.1 43.2 3.2 0.5 0.1 1 0.2 1.4 0.3q0 0.2 0 0.5z" />
        <path
            d="m828 375.4c0.4-0.9 0.8-1.8 1.3-2.7 6-12.6 11.9-25.2 18-37.7 1-2 1.1-3.6 0.1-5.7-6.2-12.7-12.4-25.6-18.5-38.4-0.5-1-0.9-2-1-3.2 0.6 0.8 1.3 1.7 1.9 2.5 8.1 11.9 16.2 23.7 24.2 35.5 1.2 1.8 2.6 2.6 4.7 2.7 14.4 1 28.8 2.1 43.2 3.2 0.6 0.1 1.3 0.3 1.9 0.8-2.7 0.3-5.4 0.5-8.1 0.7-12 0.9-24.1 1.9-36.1 2.7-2.7 0.1-4.5 1-6 3.3-7.6 11.4-15.4 22.7-23.2 34q-0.9 1.4-1.9 2.7-0.2-0.2-0.5-0.4z" />
        <path
            d="m822.7 375.8q-0.9-1.3-1.9-2.7c-7.7-11.3-15.5-22.6-23.2-34-1.5-2.3-3.2-3.2-5.9-3.3-14.5-1-28.9-2.2-43.4-3.2-0.3-0.1-0.6-0.2-0.9-0.6 0.7-0.1 1.4-0.3 2.2-0.4 14.4-1.1 28.7-2.2 43.1-3.2 2-0.1 3.3-0.9 4.4-2.6 8.1-11.8 16.2-23.6 24.3-35.4 0.6-1 1.3-1.9 2.3-2.6-0.4 1-0.8 1.9-1.3 2.9-6.1 12.7-12.1 25.5-18.3 38.1-1.2 2.3-1.3 4.1-0.1 6.5 6.1 12.4 12 24.9 18 37.3q0.6 1.4 1.2 2.8-0.3 0.2-0.5 0.4z" />
        <path
            d="m737.3 332.4c-3 0.3-6 0.6-9 0.8-12 0.9-24 1.8-35.9 2.6-2.2 0.2-3.7 0.9-5 2.8-7.7 11.6-15.7 23-23.5 34.5-0.6 0.9-1.3 1.8-2.4 2.5 0.4-0.9 0.7-1.8 1.1-2.7 6.1-12.7 12.2-25.5 18.4-38.2 0.9-1.8 0.9-3.3 0-5.1-6.3-12.9-12.4-25.8-18.6-38.7-0.5-1-0.9-2-1-3.2 0.6 0.8 1.3 1.7 1.9 2.6 8 11.7 16.1 23.4 24 35.2 1.4 2 2.9 2.8 5.2 3 14.5 0.9 28.8 2.1 43.2 3.2 0.5 0 1 0.1 1.5 0.2q0 0.2 0.1 0.5z" />
        <path
            d="m657.2 287.8c-0.4 1-0.9 2-1.3 3-6.2 12.9-12.4 25.8-18.6 38.7-1 1.9-1 3.4 0 5.4 6.1 12.5 12.1 25 18.1 37.6 0.4 0.9 0.9 1.9 0.8 3.2-0.6-0.8-1.2-1.6-1.8-2.4-7.7-11.3-15.5-22.6-23.2-34-1.5-2.4-3.3-3.4-6.1-3.6-14.4-0.9-28.8-2-43.1-3.1-0.4-0.1-0.7-0.1-1.1-0.6 0.7-0.1 1.3-0.3 2-0.4 14.3-1.1 28.7-2.2 43.1-3.2 2.1-0.1 3.5-0.9 4.7-2.6 8.1-12.1 16.4-24 24.6-36 0.5-0.7 1-1.4 1.5-2.2q0.2 0.1 0.4 0.2z" />
        <path
            d="m495 375.6c0.4-0.9 0.7-1.8 1.1-2.7 6.1-12.7 12.2-25.5 18.4-38.2 0.9-1.8 0.9-3.3 0-5.1-6.3-12.9-12.4-25.8-18.6-38.7-0.5-1-0.9-2-1-3.2 0.6 0.8 1.3 1.7 1.9 2.6 8 11.7 16.1 23.4 24 35.2 1.4 2 2.9 2.8 5.2 3 14.4 0.9 28.8 2.1 43.2 3.2 0.5 0 1 0.1 1.6 0.6-0.5 0.1-1 0.3-1.5 0.3-14.4 1.1-28.9 2.2-43.4 3.2-2.2 0.2-3.7 0.9-5 2.8-7.8 11.6-15.7 23-23.5 34.5q-1 1.4-1.9 2.7-0.3-0.1-0.5-0.2z" />
        <path
            d="m823.7 672.1c-0.4 1-0.8 1.9-1.3 2.9-6.2 12.9-12.4 25.8-18.6 38.7-1 1.9-1 3.5 0 5.4 6.1 12.6 12.1 25.2 18.2 37.9 0.4 0.9 0.8 1.8 0.7 3-0.6-0.8-1.2-1.7-1.8-2.5-7.7-11.3-15.5-22.6-23.2-34-1.5-2.3-3.3-3.3-6.1-3.5-14.4-0.9-28.7-2.1-43.1-3.2-0.4 0-0.7-0.1-1.1-0.6 0.7-0.1 1.3-0.3 2-0.3 14.3-1.1 28.7-2.2 43.1-3.2 2.1-0.2 3.5-0.9 4.7-2.7 8.1-12 16.4-24 24.6-36 0.5-0.7 1-1.4 1.5-2.1q0.2 0.1 0.4 0.2z" />
        <path
            d="m490.7 672.2q-3.1 6.6-6.3 13.1c-4.5 9.5-9 18.9-13.6 28.3-1 2.1-0.9 3.7 0.1 5.7 6.1 12.6 12.1 25.2 18.2 37.9 0.4 0.8 0.7 1.7 0.6 2.9q-1-1.4-1.9-2.7c-7.7-11.4-15.5-22.6-23.2-34-1.5-2.3-3.2-3.2-5.9-3.4-14.5-1-28.9-2.1-43.4-3.2-0.3 0-0.6-0.1-0.9-0.5 0.7-0.2 1.4-0.4 2.1-0.4 14.4-1.1 28.8-2.2 43.2-3.2 2-0.2 3.3-0.9 4.4-2.6 8-11.9 16.2-23.7 24.2-35.5q1-1.4 2-2.7 0.2 0.1 0.4 0.3z" />
        <path
            d="m828 672q3.8 5.4 7.5 10.8c6.2 9 12.4 18.1 18.5 27.2 1.2 1.8 2.6 2.5 4.7 2.7 14.4 1 28.8 2.1 43.2 3.2 0.6 0 1.3 0.2 1.9 0.8-2.7 0.2-5.4 0.5-8.1 0.7-12 0.9-24.1 1.8-36.2 2.6-2.6 0.2-4.4 1-5.9 3.3-7.6 11.4-15.4 22.7-23.2 34q-0.9 1.4-1.9 2.7-0.3-0.1-0.5-0.2c0.4-0.9 0.7-1.8 1.1-2.6 6-12.6 12-25.1 18.1-37.6 1.1-2.3 1.2-4 0.1-6.3-6.2-12.6-12.3-25.4-18.4-38.1q-0.7-1.5-1.4-3 0.3-0.1 0.5-0.2z" />
        <path
            d="m489.6 375.7q-3.7-5.4-7.4-10.8c-5.9-8.6-11.9-17.2-17.7-25.9-1.4-2.2-3.1-3-5.6-3.2-14.6-1-29.2-2.2-43.8-3.3-0.2 0-0.4 0-1.2-0.2 1.1-0.3 1.6-0.6 2.2-0.6 14.3-1.1 28.5-2.3 42.8-3.2 2.6-0.2 4.2-1.1 5.7-3.3 7.8-11.7 15.9-23.3 23.8-35 0.6-0.8 1.3-1.7 2.3-2.3-0.5 0.9-0.9 1.9-1.3 2.9-6.1 12.7-12.2 25.5-18.4 38.2-1.2 2.3-1.1 4.1 0.1 6.4 6 12.4 11.9 24.9 17.9 37.4 0.4 0.9 0.8 1.8 1.2 2.7q-0.3 0.1-0.6 0.2z" />
        <path
            d="m580.9 716.1c3.3-0.3 6.6-0.6 9.9-0.8 11.9-0.9 23.7-1.8 35.6-2.6 1.9-0.2 3.1-0.9 4.2-2.5 8-11.9 16.2-23.8 24.4-35.7 0.6-0.9 1.2-1.8 2.2-2.4-0.5 1-0.9 2-1.3 3-6.1 12.7-12.2 25.4-18.4 38.1-1.1 2.2-1.2 4-0.1 6.2 6.1 12.4 12 24.9 18 37.4 0.5 0.9 0.9 1.9 0.8 3.2-0.6-0.8-1.2-1.7-1.8-2.5-7.8-11.4-15.7-22.8-23.4-34.3-1.4-2.2-3.1-3-5.7-3.2-14.5-1-29.1-2.1-43.7-3.2-0.2 0-0.4-0.1-0.6-0.2q0-0.2-0.1-0.5z" />
        <path
            d="m328.4 287.7c0.6 0.8 1.3 1.7 1.9 2.6 8.1 11.8 16.2 23.6 24.2 35.5 1.2 1.7 2.6 2.5 4.7 2.6 14.4 1 28.8 2.1 43.2 3.2 0.6 0.1 1.3 0.3 1.9 0.8-2.9 0.3-5.8 0.5-8.7 0.8-12 0.9-23.9 1.8-35.9 2.6-2.5 0.2-4.1 1-5.5 3.1-7.7 11.4-15.5 22.8-23.3 34.2-0.6 0.9-1.3 1.8-2.4 2.5 0.4-0.9 0.7-1.8 1.1-2.7 6.1-12.6 12.1-25.3 18.2-37.9 1-2 1.1-3.6 0.1-5.7-6.3-12.8-12.4-25.6-18.5-38.4-0.5-1-0.9-2-1.4-3q0.2-0.1 0.4-0.2z" />
        <path
            d="m323.2 375.8c-0.6-0.9-1.3-1.7-1.9-2.6-7.8-11.4-15.6-22.8-23.3-34.2-1.4-2.1-2.9-3-5.4-3.2-14.6-1-29.1-2.1-43.7-3.2-0.3-0.1-0.6-0.1-1.7-0.3 1.3-0.3 1.8-0.6 2.4-0.6 14.4-1.1 28.8-2.3 43.2-3.2 2.3-0.2 3.8-1.1 5.1-3.1 7.9-11.7 16-23.4 24-35.2 0.6-0.9 1.3-1.7 2.3-2.3-0.5 1-0.9 2-1.4 2.9-6.1 12.8-12.1 25.5-18.3 38.2-1.1 2.2-1.2 3.9-0.1 6.2 6.1 12.5 12.1 25 18.1 37.6 0.4 0.9 0.8 1.8 1.2 2.7q-0.3 0.1-0.5 0.3z" />
        <path
            d="m162 287.7q4.7 6.8 9.3 13.6c5.6 8.1 11.2 16.2 16.7 24.4 1.2 1.8 2.5 2.6 4.7 2.7 14.4 1 28.8 2.1 43.1 3.2 0.7 0.1 1.3 0.3 2 0.8-2.7 0.3-5.4 0.5-8.1 0.7-12.1 0.9-24.1 1.9-36.2 2.7-2.6 0.1-4.4 1-5.9 3.3-7.7 11.4-15.5 22.7-23.2 34q-1 1.4-1.9 2.7-0.3-0.1-0.6-0.3c0.4-0.8 0.8-1.7 1.2-2.6 6.1-12.6 12.1-25.3 18.2-37.9 1-2 1.1-3.6 0.1-5.7-6.3-12.7-12.4-25.6-18.5-38.4q-0.7-1.5-1.4-3 0.3-0.1 0.5-0.2z" />
        <path
            d="m661.5 759.8c0.4-0.9 0.7-1.8 1.1-2.7 6.1-12.7 12.2-25.4 18.4-38.1 0.9-1.9 0.9-3.3 0-5.2-6.3-12.8-12.4-25.8-18.6-38.7-0.5-1-0.9-2-1-3.2 0.6 0.9 1.3 1.7 1.9 2.6 8 11.8 16.1 23.5 24 35.3 1.4 2 2.9 2.7 5.2 2.9 14.4 1 28.8 2.1 43.2 3.2 0.5 0 1 0.1 1.6 0.6-0.5 0.1-1 0.3-1.4 0.3-14.5 1.1-29 2.3-43.5 3.3-2.2 0.1-3.7 0.9-5 2.8-7.7 11.5-15.7 23-23.5 34.5q-1 1.3-1.9 2.7-0.3-0.2-0.5-0.3z" />
        <path
            d="m323.2 567.9q-1-1.3-1.9-2.7c-7.8-11.3-15.6-22.6-23.2-33.9-1.5-2.3-3.2-3.2-5.9-3.4-14.5-1-28.9-2.1-43.4-3.2-0.3 0-0.6-0.1-0.9-0.5 0.7-0.2 1.4-0.4 2.1-0.4 14.4-1.1 28.8-2.2 43.2-3.3 2-0.1 3.3-0.8 4.4-2.5 8-11.9 16.1-23.7 24.2-35.5 0.7-0.9 1.3-1.8 2.4-2.5-0.4 0.9-0.8 1.9-1.3 2.8-6.2 12.9-12.3 25.8-18.6 38.7-1 2-0.9 3.6 0 5.6 6.2 12.6 12.2 25.3 18.3 37.9 0.4 0.9 0.7 1.8 1.1 2.7q-0.3 0.1-0.5 0.2z" />
        <path
            d="m823.6 96.2q-0.6 1.5-1.3 2.9c-6.1 12.8-12.2 25.5-18.4 38.2-0.9 2-1 3.6 0 5.7 6.1 12.4 12.1 25 18.1 37.6 0.4 0.9 0.8 1.8 0.7 3-0.6-0.8-1.2-1.6-1.7-2.4-7.8-11.3-15.6-22.6-23.2-34-1.7-2.5-3.6-3.4-6.4-3.6-14.6-1-29.2-2.1-43.8-3.5 4.6-0.4 9.3-0.9 13.9-1.2 10.5-0.8 21.1-1.7 31.6-2.4 1.8-0.1 2.9-0.8 3.9-2.3 8-11.8 16.1-23.6 24.2-35.5q1-1.3 2-2.7 0.2 0.1 0.4 0.2z" />
        <path
            d="m828 95.9q2 2.9 4 5.8c7.3 10.7 14.7 21.4 22 32.2 1.2 1.8 2.5 2.5 4.6 2.6 13.1 0.9 26.2 2 39.2 3 1.9 0.2 3.8 0.4 5.7 0.9q-12.9 1-25.9 1.9c-6.4 0.5-12.7 1-19.1 1.4-2 0.2-3.3 1-4.4 2.7-7.9 11.6-15.8 23.1-23.7 34.7-0.6 0.8-1.3 1.7-2.4 2.3 0.4-0.9 0.7-1.8 1.2-2.7 6-12.6 12-25.3 18.2-37.9 0.9-1.9 0.9-3.4 0-5.3-6.2-12.7-12.3-25.5-18.4-38.2q-0.7-1.5-1.4-3 0.2-0.2 0.4-0.4z" />
        <path
            d="m328.6 96q2.1 3 4.1 6c7.3 10.6 14.6 21.3 21.8 32 1.1 1.6 2.4 2.4 4.4 2.5 13.2 0.9 26.3 2 39.5 3q2.9 0.2 5.7 0.9-17.2 1.3-34.3 2.6c-3.6 0.3-7.1 0.6-10.6 0.7-2.2 0.1-3.5 1-4.7 2.7-7.8 11.6-15.7 23-23.6 34.5-0.6 0.9-1.2 1.8-2.4 2.5 0.4-0.9 0.7-1.7 1.1-2.5 6.1-12.7 12.1-25.5 18.3-38.2 0.9-1.8 0.9-3.2 0-5.1-6.2-12.7-12.3-25.6-18.5-38.4q-0.7-1.4-1.3-2.9 0.2-0.2 0.5-0.3z" />
        <path
            d="m489.7 183.6c-0.7-0.9-1.3-1.8-1.9-2.7-7.8-11.4-15.7-22.8-23.4-34.2-1.3-2-2.8-2.8-5.2-3-14.6-1-29.1-2.2-43.7-3.2-0.3-0.1-0.6-0.1-0.9-0.4 4.6-0.4 9.3-0.9 13.9-1.2 10.5-0.8 21.1-1.7 31.6-2.4 1.8-0.1 2.9-0.8 3.9-2.3 8-11.9 16.1-23.7 24.2-35.5 0.7-0.9 1.3-1.8 2.4-2.5q-0.6 1.3-1.2 2.7c-6.2 12.9-12.4 25.8-18.6 38.7-0.9 1.8-0.9 3.3 0 5.1 6.1 12.6 12.1 25.2 18.2 37.9 0.4 0.9 0.8 1.8 1.2 2.7q-0.3 0.2-0.5 0.3z" />
        <path
            d="m495 183.2q0.6-1.3 1.2-2.7c6-12.4 11.9-24.9 18-37.3 1-2.1 1.1-3.8 0.1-5.9-6.3-12.7-12.3-25.4-18.4-38.2-0.5-0.9-0.9-1.9-0.9-3.2q1 1.5 2 2.9c8.1 11.8 16.1 23.5 24.1 35.2 1 1.6 2.2 2.4 4.1 2.5 13.3 0.9 26.5 2 39.8 3 1.8 0.2 3.6 0.4 5.4 0.8q-8.6 0.7-17.2 1.4c-9.2 0.7-18.4 1.4-27.6 2-2.2 0.2-3.5 1.1-4.7 2.8-7.8 11.5-15.7 23-23.5 34.5q-1 1.3-1.9 2.7-0.3-0.2-0.5-0.5z" />
        <path
            d="m162 183.4c0.4-0.9 0.7-1.9 1.2-2.7 6-12.6 11.9-25.2 18-37.7 1-2 1.1-3.5 0.1-5.6-6.2-12.7-12.2-25.4-18.3-38.1-0.5-1-1-2-1-3.3 0.6 0.8 1.2 1.6 1.8 2.5 8.1 11.8 16.2 23.6 24.2 35.4 1.1 1.7 2.3 2.5 4.4 2.6 13.1 0.9 26.3 2 39.5 3 1.9 0.2 3.8 0.4 5.7 0.9q-13.2 1-26.4 2c-6.3 0.4-12.5 1-18.8 1.3-2.1 0.2-3.3 1-4.4 2.7-7.8 11.5-15.7 23-23.5 34.5q-1 1.3-2 2.7-0.2-0.1-0.5-0.2z" />
        <path
            d="m323.2 183.7c-0.6-0.9-1.3-1.8-1.9-2.7-7.6-11.1-15.3-22.2-22.8-33.5-1.7-2.6-3.7-3.7-6.9-3.9-14.4-0.9-28.9-2.1-43.4-3.5 4.5-0.4 9.1-0.8 13.7-1.2 10.5-0.8 21-1.7 31.5-2.4 2-0.1 3.1-0.9 4.2-2.4 8-11.9 16.1-23.7 24.2-35.5 0.6-0.9 1.3-1.8 2.3-2.5q-0.6 1.5-1.3 2.9c-6.1 12.9-12.2 25.7-18.5 38.5-0.9 1.9-0.9 3.4 0 5.3 6.2 12.6 12.2 25.3 18.2 37.9 0.5 0.9 0.8 1.8 1.2 2.7q-0.3 0.1-0.5 0.3z" />
        <path
            d="m656.2 183.6c-0.7-0.9-1.3-1.8-1.9-2.7-7.8-11.4-15.7-22.8-23.4-34.2-1.3-2-2.8-2.8-5.2-3-14.6-1-29.1-2.2-43.7-3.2-0.3-0.1-0.6-0.1-0.9-0.4 4.6-0.4 9.3-0.9 13.9-1.2 10.5-0.8 21.1-1.7 31.6-2.4 1.8-0.1 2.9-0.8 3.9-2.3 8-11.9 16.2-23.7 24.2-35.5 0.7-0.9 1.3-1.8 2.4-2.5q-0.6 1.3-1.2 2.7c-6.1 12.8-12.2 25.6-18.5 38.4-1 2-1 3.6 0 5.7 6.1 12.5 12.1 25 18.1 37.6 0.4 0.9 0.8 1.8 1.2 2.7q-0.3 0.1-0.5 0.3z" />
        <path
            d="m661.5 183.4c0.4-0.9 0.8-1.9 1.2-2.7 5.9-12.5 11.9-25 17.9-37.4 1.1-2.2 1.2-3.9 0.1-6.2-6.2-12.5-12.2-25.2-18.2-37.8-0.5-1-0.9-2-1-3.3q0.9 1.2 1.8 2.5c8.1 11.8 16.2 23.6 24.2 35.4 1.1 1.7 2.3 2.5 4.4 2.6 13.2 0.9 26.3 2 39.5 3 1.9 0.2 3.8 0.4 5.7 0.9q-13.2 1-26.4 2c-6.2 0.4-12.5 1-18.8 1.3-2 0.2-3.3 1-4.4 2.7-7.8 11.5-15.7 23-23.5 34.5q-1 1.3-1.9 2.7-0.3-0.1-0.6-0.2z" />
    </g>
</svg>