<svg width="944" height="799" viewBox="0 0 944 799" fill="none" xmlns="http://www.w3.org/2000/svg">
<path d="M827.689 145.437H528.908C516.78 145.437 504.934 140.458 496.753 131.996L403.528 33.818C381.119 11.4872 350.459 -0.176769 319.407 0.00202498H116.311C52.1799 0.000181745 0 52.1656 0 116.277V682.374C0 746.488 52.1799 798.653 116.311 798.653H828.113H828.225C892.315 798.37 944.282 745.959 944 682.021V261.714C944 197.601 891.821 145.437 827.689 145.437ZM872.859 682.162C872.97 707.056 852.802 727.431 828.042 727.537H116.311C91.4132 727.537 71.139 707.268 71.139 682.38V116.277C71.139 91.3861 91.4132 71.1175 116.311 71.081H320.333C320.723 71.081 321.114 71.081 321.507 71.081C333.386 71.081 344.911 75.8109 352.665 83.4914L445.392 181.206C467.159 203.68 497.607 216.553 528.908 216.553H827.689C852.584 216.553 872.859 236.821 872.859 261.712V682.162Z" fill="#00C4CC"/>
</svg>
