<svg width="1095" height="845" viewBox="0 0 1095 845" fill="none" xmlns="http://www.w3.org/2000/svg">
<path d="M1020.53 278.886H563.762V236.855C563.762 185.792 521.9 145.771 470.839 145.54C437.814 145.39 410.991 118.477 410.991 85.4175V16.9436C410.991 8.0382 404.128 0.272684 395.227 0.00748864C386.017 -0.2684 378.466 7.11429 378.466 16.2635V86.7649C378.466 137.877 420.27 177.84 471.383 178.067C504.41 178.212 531.238 205.128 531.238 238.189V278.886H201.662C192.682 278.886 185.399 286.168 185.399 295.148C185.399 304.129 192.682 311.411 201.662 311.411H1020.52C1043.69 311.411 1062.48 330.193 1062.48 353.363V385.563H32.5249V353.363C32.5249 330.195 51.3067 311.413 74.475 311.413H125.767C134.747 311.413 142.029 304.131 142.029 295.151C142.029 286.17 134.747 278.888 125.767 278.888H74.475C33.344 278.886 0 312.23 0 353.361V770.314C0 811.445 33.344 844.789 74.475 844.789H1020.52C1061.66 844.789 1095 811.445 1095 770.312V721.85V615.173V508.498V401.821V353.359C1095 312.23 1061.66 278.886 1020.53 278.886ZM840.098 418.086H935.023V492.238H840.098V418.086ZM978.111 524.763V598.915H883.186V524.763H978.111ZM850.661 524.763V598.915H755.736V524.763H850.661ZM712.646 418.086H807.573V492.238H712.646V418.086ZM723.211 524.763V598.915H628.284V524.763H723.211ZM585.196 418.086H680.121V492.238H585.196V418.086ZM457.744 631.438H552.669V705.59H457.744V631.438V631.438ZM373.384 598.915V524.763H468.311V598.915H373.384V598.915ZM500.836 598.915V524.763H595.761V598.915H500.836V598.915ZM457.746 418.086H552.671V492.238H457.746V418.086V418.086ZM330.292 418.086H425.219V492.238H330.292V418.086ZM340.857 524.763V598.915H245.932V524.763H340.857ZM202.844 418.086H297.769V492.238H202.844V418.086ZM213.407 524.763V598.915H118.48V524.763H213.407ZM32.5249 418.088H170.32V492.24H32.5249V418.088V418.088ZM32.5249 524.763H85.9575V598.915H32.5249V524.763ZM71.53 812.119C49.7733 810.594 32.5249 792.454 32.5249 770.316V738.117H71.53V812.119ZM32.5249 705.592V631.44H170.32V705.592H32.5249V705.592ZM198.98 812.267H104.055V738.114H198.98V812.267ZM202.844 631.438H297.769V705.59H202.844V631.438ZM326.434 812.267H231.507V738.114H326.434V812.267ZM330.292 631.438H425.219V705.59H330.292V631.438ZM700.449 812.267H358.959V738.114H596.294C605.274 738.114 612.556 730.832 612.556 721.852C612.556 712.872 605.274 705.59 596.294 705.59H585.196V631.438H680.121V705.59H672.187C663.206 705.59 655.924 712.872 655.924 721.852C655.924 730.832 663.206 738.114 672.187 738.114H700.449V812.267V812.267ZM712.646 631.438H807.573V705.59H712.646V631.438ZM827.897 812.267H732.972V738.114H827.897V812.267ZM840.098 631.438H935.023V705.59H840.098V631.438ZM955.349 812.267H860.422V738.114H955.349V812.267ZM1062.48 770.312C1062.48 793.446 1043.65 812.264 1020.52 812.264H987.874V738.112H1062.48V770.312V770.312ZM1062.48 615.177V705.59H967.548V631.438H994.376C1003.36 631.438 1010.64 624.155 1010.64 615.175V524.763H1062.48V615.177V615.177ZM1062.48 492.238H967.548V418.086H1062.48V492.238Z" fill="#FF6969"/>
</svg>
