<svg width="485" height="443" viewBox="0 0 485 443" fill="none" xmlns="http://www.w3.org/2000/svg">
<path d="M449.73 373.622H34.5946C25.4229 373.611 16.63 369.962 10.1447 363.477C3.65929 356.992 0.0109863 348.199 0 339.027V89.9459H13.8378V339.027C13.8378 344.532 16.0247 349.812 19.9174 353.704C23.81 357.597 29.0896 359.784 34.5946 359.784H449.73C455.235 359.784 460.514 357.597 464.407 353.704C468.3 349.812 470.486 344.532 470.486 339.027V34.5946C470.486 29.0896 468.3 23.81 464.407 19.9174C460.514 16.0247 455.235 13.8378 449.73 13.8378H34.5946C29.0896 13.8378 23.81 16.0247 19.9174 19.9174C16.0247 23.81 13.8378 29.0896 13.8378 34.5946V62.2703H0V34.5946C0.0109863 25.4229 3.65929 16.63 10.1447 10.1447C16.63 3.65929 25.4229 0.0109863 34.5946 0H449.73C458.901 0.0109863 467.694 3.65929 474.18 10.1447C480.665 16.63 484.313 25.4229 484.324 34.5946V339.027C484.313 348.199 480.665 356.992 474.18 363.477C467.694 369.962 458.901 373.611 449.73 373.622Z" fill="#FF6969"/>
<path d="M345.946 442.811H138.378C136.543 442.811 134.784 442.082 133.486 440.784C132.188 439.487 131.459 437.727 131.459 435.892C131.459 401.297 167.915 401.297 179.892 401.297H304.432C316.409 401.297 352.865 401.297 352.865 435.892C352.865 437.727 352.136 439.487 350.838 440.784C349.541 442.082 347.781 442.811 345.946 442.811ZM146.135 428.973H338.19C335.775 420.456 327.424 415.135 304.432 415.135H179.892C156.9 415.135 148.549 420.456 146.135 428.973V428.973Z" fill="#FF6969"/>
<path d="M297.513 415.135H186.811C184.976 415.135 183.216 414.406 181.918 413.109C180.621 411.811 179.892 410.051 179.892 408.216V366.703C179.892 364.868 180.621 363.108 181.918 361.81C183.216 360.513 184.976 359.784 186.811 359.784H297.513C299.348 359.784 301.108 360.513 302.406 361.81C303.703 363.108 304.432 364.868 304.432 366.703V408.216C304.432 410.051 303.703 411.811 302.406 413.109C301.108 414.406 299.348 415.135 297.513 415.135ZM193.73 401.297H290.595V373.622H193.73V401.297Z" fill="#FF6969"/>
<path d="M6.91895 304.432H477.405V318.27H6.91895V304.432Z" fill="#FF6969"/>
<path d="M214.487 332.108H269.838V345.946H214.487V332.108Z" fill="#FF6969"/>
</svg>
