<svg xmlns="http://www.w3.org/2000/svg" viewBox="0 0 480.008 480.008"><path d="M461.045,278.402l-23.572,18.084c-3.506,2.69-8.528,2.028-11.217-1.478c-2.689-3.506-2.028-8.527,1.478-11.217	l23.572-18.084c16.922-12.982,16.942-38.399,0.003-51.398L225.76,41.241c-23.242-17.834-56.506,1.524-52.286,30.397l14.595,98.189	c0.718,4.827-3.026,9.176-7.913,9.176H29.757c-7.586,0-13.757,6.143-13.757,13.693v94.613c0,7.551,6.171,13.693,13.757,13.693	h150.214c4.875,0,8.625,4.333,7.915,9.163l-14.435,98.221c-4.213,28.798,28.98,48.244,52.262,30.385l145.239-111.422L227.76,217.108	c-3.501-2.695-4.154-7.718-1.458-11.219c2.695-3.5,7.719-4.154,11.219-1.458c161.443,124.301,152.748,116.92,153.964,119.922	c0.786,1.931,0.785,4.102-0.004,6.032c-1.221,2.997,8.688-5.279-156.028,121.083c-34.694,26.616-84.133-2.32-77.832-45.4	l13.089-89.063H29.757C13.349,317.004,0,303.684,0,287.311v-94.613c0-16.373,13.349-29.693,29.757-29.693h141.122l-13.234-89.032	c-6.304-43.13,43.158-72.049,77.855-45.424l225.549,173.068C486.317,221.004,486.34,258.998,461.045,278.402z"></path></svg>