<svg width="448" height="609" viewBox="0 0 448 609" fill="none" xmlns="http://www.w3.org/2000/svg">
<path fill-rule="evenodd" clip-rule="evenodd" d="M20.6241 382.629C2.60468 362.569 3.31673 331.682 22.671 312.48L143.123 192.979C163.088 173.172 195.33 173.3 215.137 193.265C234.944 213.23 234.817 245.472 214.852 265.279L130.547 348.918L165.933 384.586L178.366 397.117L300.671 520.396C320.478 540.361 320.35 572.602 300.386 592.41C280.421 612.217 248.179 612.089 228.371 592.124L106.067 468.846L93.6338 456.314L22.4302 384.544C21.8085 383.918 21.2065 383.279 20.6241 382.629Z" fill="#F11616"/>
<path fill-rule="evenodd" clip-rule="evenodd" d="M433.197 217.129C451.778 236.636 451.988 267.502 433.237 287.267L316.459 410.36C297.103 430.763 264.872 431.612 244.469 412.256C224.066 392.9 223.218 360.669 242.574 340.266L324.307 254.113L287.857 219.533L275.051 207.383L149.07 87.8644C128.667 68.5084 127.818 36.2775 147.174 15.8748C166.531 -4.52791 198.761 -5.37639 219.164 13.9797L345.145 133.498L357.952 145.648L431.296 215.229C431.95 215.85 432.584 216.483 433.197 217.129Z" fill="#F11616"/>
</svg>
