<svg width="512" height="512" viewBox="0 0 512 512" fill="none" xmlns="http://www.w3.org/2000/svg">
<path d="M103.246 387.843C103.246 383.701 99.888 380.343 95.746 380.343C51.222 380.343 15 344.147 15 299.657C15 268.096 33.583 239.253 62.341 226.176C66.112 224.462 67.779 220.015 66.064 216.244C64.35 212.473 59.902 210.806 56.132 212.521C22.033 228.027 0 262.229 0 299.657C0 352.418 42.951 395.343 95.746 395.343C99.888 395.343 103.246 391.985 103.246 387.843V387.843Z" fill="#00C4CC"/>
<path d="M157.051 231.168C167.865 170.775 220.353 126.942 281.855 126.942C328.886 126.942 371.822 152.749 393.906 194.293C395.851 197.95 400.391 199.339 404.049 197.395C407.706 195.451 409.095 190.91 407.151 187.252C402.951 179.351 398.076 171.959 392.619 165.132V65.157L410.763 43.537C413.217 44.457 415.872 44.96 418.644 44.96C431.051 44.96 441.144 34.876 441.144 22.48C441.144 10.084 431.05 0 418.644 0C406.238 0 396.144 10.084 396.144 22.48C396.144 26.646 397.284 30.551 399.269 33.899L379.374 57.605C378.241 58.956 377.619 60.663 377.619 62.426V149.088C364.451 137.032 349.13 127.585 332.468 121.235V68.887C341.198 65.794 347.468 57.46 347.468 47.691C347.468 35.295 337.375 25.211 324.968 25.211C312.561 25.211 302.468 35.295 302.468 47.691C302.468 57.46 308.738 65.794 317.468 68.887V116.457C305.999 113.494 294.05 111.942 281.855 111.942C275.646 111.942 269.518 112.342 263.5 113.119V43.676C272.23 40.583 278.5 32.249 278.5 22.48C278.5 10.084 268.407 0 256 0C243.593 0 233.5 10.084 233.5 22.48C233.5 32.249 239.77 40.583 248.5 43.676V115.881C228.611 120.662 210.263 129.635 194.532 141.9V68.887C203.262 65.794 209.532 57.46 209.532 47.691C209.532 35.295 199.439 25.211 187.032 25.211C174.625 25.211 164.532 35.295 164.532 47.691C164.532 57.46 170.802 65.794 179.532 68.887V155.417C163.186 172.407 150.996 193.567 144.733 217.417C141.23 215.321 137.615 213.463 133.905 211.847V62.427C133.905 60.663 133.283 58.956 132.15 57.606L112.256 33.9C114.241 30.551 115.381 26.646 115.381 22.48C115.381 10.084 105.288 0 92.881 0C80.474 0 70.381 10.084 70.381 22.48C70.381 34.876 80.474 44.96 92.881 44.96C95.652 44.96 98.308 44.457 100.761 43.537L118.905 65.157V206.767C111.417 204.916 103.66 203.972 95.745 203.972C91.603 203.972 88.245 207.33 88.245 211.472C88.245 215.614 91.603 218.972 95.745 218.972C113.786 218.972 130.846 224.785 145.082 235.782C146.415 236.812 148.033 237.347 149.668 237.347C150.577 237.347 151.491 237.182 152.365 236.845C154.812 235.901 156.588 233.749 157.051 231.168V231.168ZM418.644 15C422.78 15 426.144 18.355 426.144 22.48C426.144 26.605 422.78 29.96 418.644 29.96C414.508 29.96 411.144 26.605 411.144 22.48C411.144 18.355 414.508 15 418.644 15ZM324.968 40.21C329.104 40.21 332.468 43.566 332.468 47.69C332.468 51.814 329.104 55.17 324.968 55.17C320.832 55.17 317.468 51.815 317.468 47.69C317.468 43.565 320.832 40.21 324.968 40.21V40.21ZM256 15C260.136 15 263.5 18.355 263.5 22.48C263.5 26.605 260.136 29.96 256 29.96C251.864 29.96 248.5 26.605 248.5 22.48C248.5 18.355 251.864 15 256 15ZM187.032 40.21C191.168 40.21 194.532 43.566 194.532 47.69C194.532 51.814 191.168 55.17 187.032 55.17C182.896 55.17 179.532 51.815 179.532 47.69C179.532 43.565 182.896 40.21 187.032 40.21V40.21ZM85.381 22.48C85.381 18.355 88.745 15 92.881 15C97.017 15 100.381 18.355 100.381 22.48C100.381 26.605 97.017 29.96 92.881 29.96C88.745 29.96 85.381 26.604 85.381 22.48Z" fill="#00C4CC"/>
<path d="M439.769 250.967C434.294 250.967 428.902 251.572 423.644 252.772C423.581 242.328 422.374 231.923 420.058 221.831C419.131 217.793 415.106 215.272 411.07 216.199C407.033 217.126 404.511 221.15 405.438 225.187C407.567 234.46 408.646 244.035 408.646 253.643C408.646 256.574 408.542 259.562 408.337 262.523C408.159 265.095 409.315 267.579 411.398 269.099C413.481 270.62 416.199 270.962 418.594 270.009C425.327 267.328 432.451 265.968 439.768 265.968C471.326 265.968 496.999 291.622 496.999 323.156C496.999 354.69 471.325 380.344 439.768 380.344H415.172C411.03 380.344 407.672 383.702 407.672 387.844C407.672 391.986 411.03 395.344 415.172 395.344H439.768C479.597 395.344 511.999 362.961 511.999 323.156C512 283.351 479.597 250.967 439.769 250.967V250.967Z" fill="#00C4CC"/>
<path d="M355.522 380.343H286.015C281.873 380.343 278.515 383.701 278.515 387.843C278.515 391.985 281.873 395.343 286.015 395.343H317.468V468.324C308.738 471.417 302.468 479.751 302.468 489.52C302.468 501.916 312.561 512 324.968 512C337.375 512 347.468 501.916 347.468 489.52C347.468 479.75 341.198 471.416 332.468 468.324V395.343H355.522C359.664 395.343 363.022 391.985 363.022 387.843C363.022 383.701 359.664 380.343 355.522 380.343V380.343ZM324.968 497C320.832 497 317.468 493.645 317.468 489.52C317.468 485.395 320.832 482.04 324.968 482.04C329.104 482.04 332.468 485.396 332.468 489.52C332.468 493.644 329.104 497 324.968 497Z" fill="#00C4CC"/>
<path d="M225.962 380.343H157.668C153.526 380.343 150.168 383.701 150.168 387.843C150.168 391.985 153.526 395.343 157.668 395.343H179.532V468.324C170.802 471.417 164.532 479.751 164.532 489.52C164.532 501.916 174.625 512 187.032 512C199.439 512 209.532 501.916 209.532 489.52C209.532 479.75 203.262 471.416 194.532 468.324V395.343H225.962C230.104 395.343 233.462 391.985 233.462 387.843C233.462 383.701 230.104 380.343 225.962 380.343V380.343ZM187.032 497C182.896 497 179.532 493.645 179.532 489.52C179.532 485.395 182.896 482.04 187.032 482.04C191.168 482.04 194.532 485.396 194.532 489.52C194.532 493.644 191.168 497 187.032 497Z" fill="#00C4CC"/>
<path d="M126.881 315.637C114.474 315.637 104.381 325.721 104.381 338.117C104.381 347.886 110.651 356.22 119.381 359.313V461.823L87.611 499.678C84.948 502.851 85.362 507.581 88.535 510.244C89.94 511.423 91.651 511.999 93.352 511.999C95.492 511.999 97.618 511.088 99.101 509.32L132.626 469.373C133.759 468.022 134.381 466.315 134.381 464.552V359.312C143.111 356.219 149.381 347.885 149.381 338.116C149.381 325.721 139.288 315.637 126.881 315.637ZM126.881 345.597C122.745 345.597 119.381 342.242 119.381 338.117C119.381 333.992 122.745 330.637 126.881 330.637C131.017 330.637 134.381 333.993 134.381 338.117C134.381 342.241 131.017 345.597 126.881 345.597Z" fill="#00C4CC"/>
<path d="M256 315.637C243.593 315.637 233.5 325.721 233.5 338.117C233.5 347.886 239.77 356.22 248.5 359.313V504.5C248.5 508.642 251.858 512 256 512C260.142 512 263.5 508.642 263.5 504.5V359.313C272.23 356.22 278.5 347.886 278.5 338.117C278.5 325.721 268.407 315.637 256 315.637V315.637ZM256 345.597C251.864 345.597 248.5 342.242 248.5 338.117C248.5 333.992 251.864 330.637 256 330.637C260.136 330.637 263.5 333.993 263.5 338.117C263.5 342.241 260.136 345.597 256 345.597Z" fill="#00C4CC"/>
<path d="M392.619 461.823V359.313C401.349 356.22 407.619 347.886 407.619 338.117C407.619 325.721 397.526 315.637 385.119 315.637C372.712 315.637 362.619 325.721 362.619 338.117C362.619 347.886 368.889 356.22 377.619 359.313V464.553C377.619 466.317 378.241 468.024 379.374 469.374L412.899 509.321C414.383 511.089 416.508 512 418.648 512C420.349 512 422.06 511.424 423.465 510.245C426.638 507.582 427.051 502.851 424.389 499.679L392.619 461.823ZM385.119 330.637C389.255 330.637 392.619 333.993 392.619 338.117C392.619 342.241 389.255 345.597 385.119 345.597C380.983 345.597 377.619 342.242 377.619 338.117C377.619 333.992 380.983 330.637 385.119 330.637Z" fill="#00C4CC"/>
</svg>
